<svg width="34" height="17" viewBox="0 0 34 17" fill="none" xmlns="http://www.w3.org/2000/svg">
<path d="M7.78256 8.67565C7.04762 8.67565 6.52001 8.38839 6.21851 7.81384V8.57991H4.69214V1.72363H6.44463V4.38571C6.59539 4.11758 6.78383 3.90691 7.04762 3.77285C7.31144 3.63879 7.61294 3.56218 7.971 3.56218C8.2725 3.56218 8.53632 3.61964 8.80011 3.7537C9.06393 3.88776 9.27123 4.06013 9.45967 4.28993C9.64811 4.51978 9.79883 4.78791 9.89307 5.11345C10.0061 5.43903 10.0438 5.76461 10.0438 6.14765C10.0438 6.51152 9.98727 6.85626 9.87422 7.16268C9.76116 7.4691 9.61039 7.73723 9.40314 7.96703C9.19584 8.19688 8.96973 8.36923 8.68705 8.5033C8.40441 8.6182 8.12173 8.67565 7.78256 8.67565ZM7.27377 7.18184C7.55641 7.18184 7.80138 7.08607 7.971 6.89455C8.14059 6.70303 8.23479 6.45406 8.23479 6.14765C8.23479 5.99442 8.21597 5.86039 8.15944 5.72633C8.10291 5.59226 8.04635 5.47736 7.971 5.38158C7.89562 5.28584 7.80138 5.20923 7.68832 5.15178C7.57527 5.09433 7.46221 5.07516 7.3303 5.07516C7.14186 5.07516 6.97227 5.15178 6.80265 5.28584C6.63307 5.41991 6.50115 5.59226 6.42577 5.82206V6.70303C6.67074 7.00945 6.95342 7.18184 7.27377 7.18184Z" fill="#FF8300"/>
<path d="M12.6632 8.67565C12.2298 8.67565 11.8529 8.59904 11.5325 8.46501C11.1934 8.33094 10.9107 8.13943 10.7034 7.90958C10.4773 7.67978 10.3077 7.41165 10.1946 7.10523C10.0816 6.79881 10.025 6.49239 10.025 6.14765C10.025 5.78378 10.0816 5.4582 10.1946 5.13261C10.3077 4.80703 10.4773 4.5389 10.7034 4.28993C10.9296 4.06013 11.2122 3.86861 11.5325 3.7154C11.8718 3.58134 12.2486 3.50473 12.682 3.50473C13.1154 3.50473 13.4923 3.58134 13.8315 3.7154C14.1707 3.84946 14.4345 4.04098 14.6606 4.27081C14.8868 4.50061 15.0564 4.78791 15.1694 5.09433C15.2825 5.40074 15.339 5.72633 15.339 6.07103C15.339 6.16681 15.339 6.26255 15.3202 6.35833C15.3202 6.45407 15.3013 6.54984 15.2825 6.62646H11.8718C11.8906 6.89455 11.9848 7.08607 12.1544 7.20097C12.324 7.31591 12.5125 7.37336 12.7197 7.37336C12.9082 7.37336 13.0966 7.33503 13.2662 7.2393C13.4358 7.14352 13.5489 7.02862 13.6054 6.87543L15.094 7.31591C14.9056 7.71807 14.5853 8.02449 14.1896 8.29262C13.7562 8.56075 13.2662 8.67565 12.6632 8.67565ZM13.4358 5.59226C13.3981 5.36242 13.3227 5.1709 13.172 5.03688C13.0212 4.90281 12.8516 4.82619 12.6255 4.82619C12.3994 4.82619 12.2298 4.90281 12.079 5.03688C11.9283 5.1709 11.8529 5.36242 11.8152 5.59226H13.4358Z" fill="#FF8300"/>
<path d="M23.3289 8.57992H21.5764V5.80295C21.5764 5.55394 21.5199 5.38159 21.4257 5.26669C21.3315 5.15179 21.2184 5.09434 21.0865 5.09434C20.9357 5.09434 20.8038 5.15179 20.6342 5.28585C20.4646 5.41992 20.3704 5.59227 20.295 5.80295V8.57992H18.5425V5.80295C18.5425 5.55394 18.486 5.38159 18.3918 5.26669C18.2976 5.15179 18.1845 5.09434 18.0526 5.09434C17.9019 5.09434 17.7699 5.15179 17.6003 5.28585C17.4307 5.41992 17.3365 5.59227 17.2612 5.80295V8.57992H15.5087V3.6388H17.0916V4.36656C17.2612 4.09843 17.5061 3.88778 17.8076 3.75371C18.1091 3.61965 18.4672 3.54305 18.8817 3.54305C19.0702 3.54305 19.2586 3.5622 19.4093 3.61965C19.5601 3.65795 19.692 3.73456 19.7862 3.81117C19.8993 3.88778 19.9747 3.98353 20.05 4.0793C20.1066 4.17504 20.1631 4.28994 20.2008 4.40489C20.3704 4.13675 20.6154 3.92608 20.9169 3.77286C21.2184 3.61965 21.5576 3.54305 21.9344 3.54305C22.2548 3.54305 22.5186 3.6005 22.7071 3.73456C22.8955 3.84947 23.0462 4.00269 23.1405 4.19421C23.2347 4.38572 23.3101 4.57724 23.3289 4.76876C23.3666 4.9794 23.3666 5.17091 23.3666 5.32414V8.57992H23.3289Z" fill="#FF8300"/>
<path d="M6.44473 14.3445C6.14324 14.3445 5.87941 14.2871 5.63444 14.153C5.38948 14.019 5.16336 13.8466 4.97492 13.6168C4.78648 13.387 4.65457 13.1188 4.54151 12.7932C4.42846 12.4868 4.39075 12.1421 4.39075 11.7782C4.39075 11.4143 4.44727 11.0888 4.56037 10.7632C4.67343 10.4568 4.82416 10.1886 5.03145 9.95883C5.21989 9.72902 5.46486 9.55663 5.72868 9.42257C5.99251 9.28854 6.294 9.23105 6.63317 9.23105C7.01005 9.23105 7.31155 9.30766 7.55651 9.46089C7.80152 9.61408 8.02763 9.82476 8.19722 10.0929V9.32683H9.70474V14.1722C9.70474 14.3445 9.74241 14.4594 9.79898 14.5169C9.85551 14.5743 9.96856 14.6127 10.1381 14.6318V16.1256C9.98742 16.1639 9.8178 16.1831 9.64821 16.2023C9.47863 16.2214 9.309 16.2214 9.17713 16.2214C9.00751 16.2214 8.85678 16.2023 8.70601 16.1448C8.55524 16.0873 8.44219 16.0107 8.32913 15.9341C8.21607 15.8384 8.14069 15.7234 8.06531 15.5894C8.00878 15.4553 7.97111 15.3021 7.97111 15.1297V13.5019C7.83919 13.77 7.6319 13.9807 7.36811 14.1147C7.10429 14.2679 6.8028 14.3445 6.44473 14.3445ZM7.14196 12.8507C7.46232 12.8507 7.74495 12.6783 7.97111 12.3528V11.4718C7.87687 11.2611 7.76381 11.0696 7.59423 10.9356C7.42464 10.8015 7.25502 10.7441 7.06658 10.7441C6.93467 10.7441 6.82161 10.7632 6.70855 10.8206C6.5955 10.8781 6.50126 10.9547 6.42592 11.0505C6.35053 11.1462 6.294 11.2611 6.23747 11.3952C6.19976 11.5292 6.16209 11.6633 6.16209 11.8165C6.16209 12.123 6.25629 12.3719 6.42592 12.5634C6.61436 12.755 6.84047 12.8507 7.14196 12.8507Z" fill="#FF8300"/>
<path d="M11.7398 14.3445C11.2498 14.3445 10.873 14.1913 10.6092 13.8849C10.3454 13.5785 10.2323 13.138 10.2323 12.5634V9.32681H11.9848V12.1612C11.9848 12.3719 12.0413 12.5443 12.1355 12.6592C12.2298 12.7741 12.3617 12.8316 12.5313 12.8316C12.6632 12.8316 12.7951 12.7932 12.9458 12.7358C13.0777 12.6783 13.2285 12.5443 13.3604 12.3336V9.32681H15.1129V12.2761C15.1129 12.4485 15.1317 12.5634 15.1882 12.6209C15.2448 12.6783 15.3201 12.7167 15.4521 12.7358V14.2296C15.1506 14.2871 14.9056 14.3254 14.7171 14.3254C14.1142 14.3254 13.7749 14.0956 13.6807 13.6359L13.643 13.4636C13.4169 13.77 13.1531 13.9807 12.8327 14.1147C12.5124 14.2679 12.1544 14.3445 11.7398 14.3445Z" fill="#FF8300"/>
<path d="M18.1091 14.3445C17.6945 14.3445 17.3176 14.2871 16.9784 14.153C16.6393 14.019 16.3754 13.8274 16.1493 13.5976C15.9232 13.3678 15.7536 13.0997 15.6405 12.8124C15.5275 12.506 15.4709 12.1996 15.4709 11.874C15.4709 11.5101 15.5275 11.1845 15.6405 10.859C15.7536 10.5334 15.9232 10.2652 16.1493 10.0354C16.3754 9.8056 16.6581 9.61408 16.9784 9.46089C17.2988 9.32683 17.6945 9.25021 18.1279 9.25021C18.5613 9.25021 18.9382 9.32683 19.2586 9.46089C19.5977 9.59496 19.8616 9.78648 20.0877 10.0163C20.3138 10.2461 20.4834 10.5142 20.5965 10.8206C20.7096 11.1271 20.7661 11.4526 20.7661 11.7782C20.7661 11.874 20.7661 11.9697 20.7472 12.0655C20.7472 12.1612 20.7284 12.257 20.7096 12.3145H17.3176C17.3365 12.5826 17.4307 12.7741 17.6003 12.889C17.7699 13.0039 17.9583 13.0614 18.1656 13.0614C18.354 13.0614 18.5425 13.0231 18.7121 12.9273C18.8817 12.8316 18.9947 12.7167 19.0513 12.5634L20.5399 12.9848C20.3515 13.3678 20.05 13.6934 19.6354 13.9423C19.202 14.2105 18.7121 14.3445 18.1091 14.3445ZM18.8817 11.2612C18.844 11.0313 18.7686 10.8398 18.6179 10.7057C18.4859 10.5717 18.2975 10.4951 18.0714 10.4951C17.8453 10.4951 17.6757 10.5717 17.5249 10.7057C17.393 10.8398 17.2988 11.0313 17.2611 11.2612H18.8817Z" fill="#FF8300"/>
<path d="M24.3087 10.8398C23.9695 10.8398 23.668 10.8781 23.3853 10.9547C23.1027 11.0313 22.8954 11.1462 22.7635 11.3377V14.2488H21.011V9.32683H22.6127V10.2652C22.7823 9.93966 22.9896 9.6907 23.2534 9.49918C23.4984 9.32683 23.7811 9.23105 24.0826 9.23105C24.1956 9.23105 24.271 9.23105 24.3087 9.23105V10.8398Z" fill="#FF8300"/>
<path d="M26.8149 14.3445C26.4004 14.3445 26.0235 14.2871 25.6843 14.153C25.3451 14.019 25.0813 13.8274 24.8552 13.5976C24.629 13.3678 24.4594 13.0997 24.3464 12.8124C24.2333 12.506 24.1768 12.1996 24.1768 11.874C24.1768 11.5101 24.2333 11.1845 24.3464 10.859C24.4594 10.5334 24.629 10.2652 24.8552 10.0354C25.0813 9.8056 25.3639 9.61408 25.6843 9.46089C26.0046 9.32683 26.4004 9.25021 26.8338 9.25021C27.2672 9.25021 27.6441 9.32683 27.9644 9.46089C28.3036 9.59496 28.5674 9.78648 28.7935 10.0163C29.0197 10.2461 29.1893 10.5142 29.3023 10.8206C29.4154 11.1271 29.4719 11.4526 29.4719 11.7782C29.4719 11.874 29.4719 11.9697 29.4531 12.0655C29.4531 12.1612 29.4342 12.257 29.4154 12.3145H26.0235C26.0423 12.5826 26.1365 12.7741 26.3061 12.889C26.4758 13.0039 26.6642 13.0614 26.8714 13.0614C27.0599 13.0614 27.2483 13.0231 27.4179 12.9273C27.5875 12.8316 27.7006 12.7167 27.7571 12.5634L29.2458 12.9848C29.0573 13.3678 28.7558 13.6934 28.3413 13.9423C27.9079 14.2105 27.3991 14.3445 26.8149 14.3445ZM27.5875 11.2612C27.5498 11.0313 27.4745 10.8398 27.3237 10.7057C27.1918 10.5717 27.0034 10.4951 26.7772 10.4951C26.5511 10.4951 26.3815 10.5717 26.2307 10.7057C26.0989 10.8398 26.0046 11.0313 25.967 11.2612H27.5875Z" fill="#FF8300"/>
<path d="M33.0145 10.8398C32.6753 10.8398 32.3738 10.8781 32.0911 10.9547C31.8085 11.0313 31.6012 11.1462 31.4693 11.3377V14.2488H29.7168V9.32683H31.3186V10.2652C31.4881 9.93966 31.6954 9.6907 31.9592 9.49918C32.2042 9.32683 32.4869 9.23105 32.7884 9.23105C32.9014 9.23105 32.9768 9.23105 33.0145 9.23105V10.8398Z" fill="#FF8300"/>
<path d="M7.63196 1.85771C7.63196 1.70449 7.65081 1.57043 7.70734 1.43637C7.76387 1.30231 7.8204 1.1874 7.9146 1.09165C8.00884 0.995887 8.12189 0.919281 8.25381 0.861826C8.38572 0.804371 8.53649 0.766068 8.70607 0.766068C8.93218 0.766068 9.12062 0.823522 9.27139 0.919281C9.42212 1.01504 9.55403 1.1491 9.62941 1.30231L9.12062 1.45552C9.08295 1.37892 9.02642 1.32147 8.95104 1.28316C8.87565 1.24486 8.80027 1.22571 8.70607 1.22571C8.63069 1.22571 8.5553 1.24486 8.49877 1.26401C8.44225 1.30231 8.38572 1.34062 8.32919 1.39807C8.27266 1.45552 8.23495 1.51298 8.21613 1.58958C8.19728 1.66619 8.17842 1.7428 8.17842 1.83856C8.17842 1.93431 8.19728 2.01092 8.21613 2.08753C8.25381 2.16413 8.29148 2.22159 8.32919 2.27904C8.38572 2.3365 8.44225 2.3748 8.49877 2.4131C8.5553 2.4514 8.63069 2.45141 8.70607 2.45141C8.80027 2.45141 8.89451 2.43225 8.96989 2.3748C9.04524 2.3365 9.10177 2.25989 9.13948 2.20244L9.64827 2.35565C9.57289 2.50886 9.45983 2.64292 9.30906 2.73868C9.13948 2.83444 8.95104 2.89189 8.72493 2.89189C8.5553 2.89189 8.40457 2.85359 8.27266 2.79613C8.14075 2.73868 8.02769 2.66207 7.93345 2.56632C7.83925 2.47056 7.76387 2.35565 7.70734 2.22159C7.65081 2.14498 7.63196 2.01092 7.63196 1.85771Z" fill="#FF8300"/>
<path d="M9.93091 0H10.4585V2.24074C10.4585 2.31734 10.4774 2.3748 10.515 2.4131C10.5528 2.4514 10.6093 2.47056 10.6658 2.47056C10.7035 2.47056 10.7223 2.47056 10.7789 2.4514C10.8166 2.43225 10.8543 2.43225 10.8919 2.4131L10.9673 2.81528C10.8919 2.85359 10.8166 2.87274 10.7223 2.89189C10.6281 2.91104 10.5528 2.91104 10.4585 2.91104C10.2889 2.91104 10.1759 2.87274 10.0816 2.77698C9.98744 2.68122 9.94976 2.56631 9.94976 2.39395V0H9.93091Z" fill="#FF8300"/>
<path d="M11.1368 0.536242V0H11.6645V0.536242H11.1368ZM11.1368 2.91104V0.823517H11.6645V2.91104H11.1368Z" fill="#FF8300"/>
<path d="M13.0401 2.94934C12.8705 2.94934 12.7197 2.93019 12.5878 2.87274C12.4559 2.81528 12.3428 2.73868 12.2486 2.64292C12.1544 2.54716 12.079 2.43225 12.0225 2.29819C11.966 2.16413 11.9471 2.03007 11.9471 1.89601C11.9471 1.74279 11.966 1.60873 12.0225 1.47468C12.079 1.34061 12.1356 1.2257 12.2298 1.12995C12.324 1.03419 12.4371 0.95758 12.569 0.900125C12.7009 0.84267 12.8516 0.804367 13.0212 0.804367C13.1908 0.804367 13.3416 0.84267 13.4735 0.900125C13.6054 0.95758 13.7184 1.03419 13.8127 1.12995C13.9069 1.2257 13.9823 1.34061 14.0199 1.47468C14.0765 1.60873 14.0953 1.74279 14.0953 1.87686C14.0953 1.91516 14.0953 1.95346 14.0953 1.97261C14.0953 2.01092 14.0953 2.03007 14.0765 2.04922H12.4936C12.4936 2.12583 12.5125 2.20243 12.5501 2.25989C12.5878 2.31734 12.6255 2.3748 12.6632 2.43225C12.7197 2.47056 12.7762 2.50886 12.8328 2.52801C12.8893 2.54716 12.9647 2.56632 13.0212 2.56632C13.1343 2.56632 13.2285 2.54716 13.3228 2.48971C13.417 2.43225 13.4735 2.3748 13.5112 2.27904L13.9634 2.4131C13.888 2.56632 13.775 2.70037 13.6054 2.79613C13.4735 2.89189 13.2662 2.94934 13.0401 2.94934ZM13.5865 1.68534C13.5677 1.53213 13.5112 1.39807 13.417 1.30231C13.3228 1.20655 13.1908 1.16825 13.0589 1.16825C12.9835 1.16825 12.927 1.1874 12.8705 1.20655C12.814 1.2257 12.7574 1.26401 12.7009 1.32146C12.6632 1.35977 12.6067 1.41722 12.5878 1.49383C12.5501 1.55128 12.5313 1.62788 12.5313 1.70449H13.5865V1.68534Z" fill="#FF8300"/>
<path d="M16.3001 2.91104H15.7725V1.7428C15.7725 1.57044 15.7348 1.45553 15.6783 1.37892C15.6406 1.28316 15.5652 1.24486 15.4522 1.24486C15.3956 1.24486 15.3391 1.26401 15.2826 1.28316C15.2261 1.30231 15.1695 1.34062 15.1318 1.37892C15.0753 1.41722 15.0376 1.45553 14.9999 1.51298C14.9622 1.57044 14.9245 1.62789 14.9057 1.68534V2.91104H14.3781V0.823521H14.8492V1.20655C14.9245 1.07249 15.0376 0.976734 15.1695 0.900127C15.3203 0.823521 15.471 0.785217 15.6595 0.785217C15.7914 0.785217 15.8856 0.804369 15.9798 0.861824C16.0552 0.900127 16.1305 0.976734 16.1683 1.05334C16.2059 1.12995 16.2436 1.22571 16.2625 1.32146C16.2813 1.41722 16.2813 1.51298 16.2813 1.62789V2.91104H16.3001Z" fill="#FF8300"/>
<path d="M17.9396 2.79613C17.8642 2.83444 17.7888 2.85359 17.6757 2.89189C17.5815 2.93019 17.4685 2.93019 17.3554 2.93019C17.2801 2.93019 17.2047 2.93019 17.1481 2.91104C17.0916 2.89189 17.035 2.85359 16.9785 2.81528C16.922 2.77698 16.8843 2.71953 16.8655 2.66207C16.8278 2.60462 16.8278 2.50886 16.8278 2.43226V1.2257H16.564V0.82352H16.8278V0.134064H17.3554V0.804368H17.7888V1.20655H17.3554V2.22159C17.3554 2.29819 17.3743 2.35565 17.4119 2.3748C17.4496 2.4131 17.4873 2.4131 17.5438 2.4131C17.6004 2.4131 17.6569 2.4131 17.7135 2.39395C17.77 2.3748 17.8077 2.35565 17.8453 2.35565L17.9396 2.79613Z" fill="#FF8300"/>
<path d="M19.0701 2.94934C18.9005 2.94934 18.7498 2.93019 18.6179 2.87274C18.486 2.81528 18.3729 2.73868 18.2787 2.64292C18.1845 2.54716 18.1091 2.43225 18.0526 2.29819C17.996 2.16413 17.9772 2.03007 17.9772 1.89601C17.9772 1.74279 17.996 1.60873 18.0526 1.47468C18.1091 1.34061 18.1656 1.2257 18.2598 1.12995C18.3541 1.03419 18.4671 0.95758 18.599 0.900125C18.7309 0.84267 18.8817 0.804367 19.0513 0.804367C19.2209 0.804367 19.3716 0.84267 19.5035 0.900125C19.6354 0.95758 19.7485 1.03419 19.8427 1.12995C19.937 1.2257 20.0123 1.34061 20.05 1.47468C20.1065 1.60873 20.1254 1.74279 20.1254 1.87686C20.1254 1.91516 20.1254 1.95346 20.1254 1.97261C20.1254 2.01092 20.1254 2.03007 20.1065 2.04922H18.5236C18.5236 2.12583 18.5425 2.20243 18.5802 2.25989C18.6179 2.31734 18.6555 2.3748 18.6932 2.43225C18.7498 2.47056 18.8063 2.50886 18.8628 2.52801C18.9194 2.54716 18.9948 2.56632 19.0513 2.56632C19.1643 2.56632 19.2585 2.54716 19.3528 2.48971C19.447 2.43225 19.5035 2.3748 19.5412 2.27904L19.9935 2.4131C19.9181 2.56632 19.805 2.70037 19.6354 2.79613C19.5035 2.89189 19.2963 2.94934 19.0701 2.94934ZM19.5978 1.68534C19.5789 1.53213 19.5224 1.39807 19.4282 1.30231C19.3339 1.20655 19.202 1.16825 19.0701 1.16825C18.9948 1.16825 18.9382 1.1874 18.8817 1.20655C18.8251 1.2257 18.7686 1.26401 18.7121 1.32146C18.6744 1.35977 18.6179 1.41722 18.599 1.49383C18.5613 1.55128 18.5425 1.62788 18.5425 1.70449H19.5978V1.68534Z" fill="#FF8300"/>
<path d="M0 16.2214H1.80902L0 15.2447V16.2214Z" fill="#41873F"/>
<path d="M0 9.19276L2.92081 10.7823V8.75227L0 7.18185V9.19276Z" fill="#41873F"/>
<path d="M0 5.1709L2.92081 6.74136V4.73042L0 3.14085V5.1709Z" fill="#41873F"/>
<path d="M2.9208 1.72363H1.0741L2.9208 2.71952V1.72363Z" fill="#41873F"/>
<path d="M0 13.2146L2.92081 14.8042V12.7932L0 11.2037V13.2146Z" fill="#41873F"/>
<path d="M0 9.19275V11.2037L2.92081 12.7932V10.7823L0 9.19275Z" fill="#77BC1F"/>
<path d="M0 5.1709V7.18184L2.92081 8.75226V6.74136L0 5.1709Z" fill="#77BC1F"/>
<path d="M1.0741 1.72363H0V3.14085L2.92081 4.73041V2.71952L1.0741 1.72363Z" fill="#77BC1F"/>
<path d="M2.92081 14.8042L0 13.2337V15.2447L1.80902 16.2214H2.92081V14.8042Z" fill="#77BC1F"/>
</svg>
