<svg width="23" height="23" viewBox="0 0 23 23" fill="none" xmlns="http://www.w3.org/2000/svg">
<path d="M17.2047 21.7739C16.7083 21.0376 16.2003 20.3097 15.7195 19.5637C15.1416 18.6673 14.6446 17.7288 14.2407 16.7372C13.3406 14.5264 14.6446 12.0997 16.6171 11.2448C19.5435 9.97642 22.8568 12.1244 22.8555 15.308C22.8555 15.9594 22.6413 16.5615 22.3864 17.1487C21.7489 18.6161 20.8714 19.9416 19.9466 21.2372C19.6231 21.6903 19.2755 22.1271 18.9461 22.5756C18.7746 22.8096 18.5585 22.9263 18.2647 22.9107C18.0311 22.8984 17.7968 22.9088 17.5625 22.9081C17.1717 22.9081 16.9516 22.7824 16.8636 22.5114C16.7711 22.2256 16.8753 22.002 17.204 21.7739H17.2047ZM18.3974 21.3791C18.5126 21.2255 18.6012 21.1108 18.686 20.9929C19.6709 19.6318 20.6417 18.2596 21.3095 16.708C21.4978 16.2712 21.6603 15.787 21.6771 15.319C21.7276 13.9152 20.7549 12.6293 19.403 12.1956C18.0492 11.7614 16.5517 12.2514 15.7305 13.4122C14.9992 14.4466 14.9325 15.5342 15.4639 16.6853C16.0793 18.0192 16.8707 19.2429 17.7133 20.4374C17.9308 20.7459 18.156 21.0479 18.3967 21.3798L18.3974 21.3791Z" fill="#75B938"/>
<path d="M5.66869 10.832C5.79294 11.0381 5.94631 11.1976 5.98903 11.3829C6.06862 11.7265 5.80782 12.0227 5.44995 12.0356C5.1115 12.0479 4.77045 12.0583 4.43394 12.0291C4.28833 12.0168 4.10389 11.9403 4.01717 11.8295C2.66788 10.1139 1.39494 8.34511 0.494764 6.34106C0.323917 5.96061 0.181546 5.55941 0.0896509 5.15302C-0.329699 3.29869 0.758152 1.26094 2.59928 0.409935C5.56773 -0.96153 8.98401 1.28233 8.90312 4.55479C8.88629 5.2308 8.63714 5.84848 8.36469 6.45254C7.70978 7.90179 6.83161 9.21751 5.90554 10.5028C5.81171 10.633 5.71787 10.7633 5.66869 10.8314V10.832ZM4.42164 10.5384C4.55625 10.3589 4.64426 10.2442 4.72968 10.1269C5.71464 8.7664 6.686 7.39364 7.35385 5.842C7.54217 5.40515 7.71431 4.91969 7.72337 4.45303C7.76738 2.05362 5.19692 0.457897 3.0251 1.49038C1.6881 2.12556 0.635841 3.90211 1.42859 5.58339C1.78582 6.34042 2.16181 7.0942 2.59863 7.80716C3.16165 8.72687 3.79391 9.6038 4.42229 10.5384H4.42164Z" fill="#75B938"/>
<path d="M8.19507 10.8184C8.63448 10.8547 9.07712 10.8735 9.5133 10.9331C9.87247 10.9824 10.0588 11.2436 10.0271 11.5767C9.99737 11.8885 9.75857 12.0959 9.40717 12.09C8.73155 12.079 8.05593 12.0609 7.38031 12.0356C7.05739 12.0233 6.81794 11.7601 6.82182 11.451C6.82571 11.1412 7.0658 10.8923 7.3939 10.8793C7.65923 10.8683 7.92585 10.8774 8.19118 10.8774C8.19248 10.8579 8.19377 10.8385 8.19507 10.8197V10.8184Z" fill="#75B938"/>
<path d="M4.27612 19.0452C4.2127 19.6396 4.23988 20.2158 4.50974 20.7706C4.63852 21.0357 4.47608 21.3623 4.21528 21.4816C3.94672 21.6041 3.61797 21.5198 3.48401 21.247C3.34358 20.9598 3.20186 20.6559 3.15526 20.3448C3.0899 19.9098 3.09896 19.462 3.10284 19.0193C3.10543 18.7497 3.24392 18.5384 3.51443 18.4515C3.91113 18.3245 4.28971 18.6239 4.27612 19.0459V19.0452Z" fill="#75B938"/>
<path d="M12.0056 14.1874C11.9959 14.2762 11.9849 14.4376 11.9596 14.597C11.9053 14.9464 11.6348 15.1473 11.2866 15.1039C10.9766 15.0656 10.7702 14.7753 10.8174 14.4279C10.8886 13.9107 10.7864 13.4349 10.5178 12.9884C10.3159 12.652 10.3819 12.3227 10.6725 12.1393C10.9676 11.9533 11.3034 12.0511 11.5144 12.3901C11.8432 12.9171 11.9991 13.4946 12.0049 14.1868L12.0056 14.1874Z" fill="#75B938"/>
<path d="M7.10929 16.756C7.10735 17.0613 6.87696 17.3302 6.56569 17.3237C5.97096 17.3127 5.44289 17.4663 4.95947 17.8196C4.71291 18.0004 4.38546 17.9123 4.20878 17.6712C4.03535 17.4346 4.05347 17.0898 4.27997 16.9018C4.95171 16.3464 5.73475 16.1208 6.59675 16.1778C6.89767 16.1979 7.11123 16.4637 7.10929 16.7553V16.756Z" fill="#75B938"/>
<path d="M14.409 22.9088C14.0945 22.9088 13.7806 22.9127 13.4661 22.9075C13.105 22.9023 12.8488 22.6644 12.841 22.3371C12.8332 22.004 13.0979 21.7486 13.4687 21.746C14.1055 21.7415 14.7423 21.7408 15.3784 21.746C15.7421 21.7492 15.9855 21.9904 15.9848 22.3274C15.9842 22.6644 15.7408 22.9003 15.3759 22.9068C15.0536 22.9127 14.7313 22.9081 14.409 22.9081V22.9088Z" fill="#75B938"/>
<path d="M6.75394 22.9625C6.29446 22.8971 5.82981 22.8549 5.37616 22.7597C5.00211 22.6812 4.83191 22.3643 4.92575 22.0331C5.0157 21.7155 5.31145 21.582 5.67191 21.6384C6.0589 21.6987 6.45301 21.7162 6.84454 21.7427C7.02897 21.755 7.21535 21.7427 7.40043 21.7453C7.77707 21.7518 8.03334 21.9923 8.03075 22.3319C8.02752 22.6709 7.77125 22.9029 7.39008 22.9081C7.1804 22.9113 6.97138 22.9081 6.7617 22.9081C6.75911 22.9262 6.75652 22.9437 6.75394 22.9619V22.9625Z" fill="#75B938"/>
<path d="M8.77559 17.3309C8.68693 17.3309 8.59827 17.3348 8.50961 17.3302C8.18409 17.3127 7.94142 17.0677 7.93753 16.7579C7.9343 16.4501 8.17309 16.1954 8.49731 16.172C8.66557 16.1597 8.84677 16.1992 9.00273 16.1519C9.33731 16.0502 9.67576 15.938 9.98251 15.7734C10.343 15.5796 10.6601 15.5887 10.8607 15.8745C11.0613 16.1597 10.9707 16.5078 10.6335 16.7456C10.0809 17.1358 9.48809 17.3231 8.77559 17.3309Z" fill="#75B938"/>
<path d="M10.4472 21.7447C10.7618 21.7447 11.0763 21.7402 11.3901 21.746C11.748 21.7525 12.0023 21.9988 12.0017 22.3274C12.001 22.6566 11.7474 22.9036 11.3876 22.9068C10.7508 22.912 10.114 22.9126 9.47718 22.9068C9.1206 22.9036 8.86239 22.6514 8.86304 22.3248C8.86304 21.9994 9.12254 21.7551 9.47977 21.744C9.49595 21.744 9.51212 21.744 9.5283 21.744C9.8344 21.744 10.1411 21.744 10.4472 21.744V21.7447Z" fill="#75B938"/>
<path d="M16.4625 15.3392C16.4625 14.2678 17.3342 13.3973 18.4059 13.3986C19.4646 13.3999 20.335 14.2684 20.3376 15.3262C20.3402 16.4112 19.4653 17.2855 18.382 17.2797C17.3265 17.2739 16.4625 16.4008 16.4625 15.3392ZM18.3981 16.1143C18.822 16.1143 19.1702 15.7695 19.1747 15.3469C19.1792 14.914 18.8227 14.5582 18.3904 14.564C17.9665 14.5698 17.6254 14.9179 17.6261 15.3431C17.6267 15.7631 17.9788 16.115 18.3981 16.1143Z" fill="#75B938"/>
<path d="M4.45203 2.5293C5.51076 2.53125 6.37988 3.4004 6.38182 4.45882C6.38376 5.5438 5.50753 6.41685 4.42421 6.41037C3.36871 6.40388 2.50607 5.53019 2.50671 4.46789C2.50736 3.39651 3.37971 2.52671 4.45203 2.5293ZM5.21825 4.46724C5.21696 4.04465 4.86944 3.69595 4.4475 3.69466C4.01456 3.69336 3.66381 4.04984 3.67028 4.48474C3.67675 4.90409 4.03398 5.25149 4.45333 5.24566C4.87656 5.23982 5.22019 4.89048 5.2189 4.46724H5.21825Z" fill="#75B938"/>
</svg>
