<svg width="164" height="71" viewBox="0 0 164 71" fill="none" xmlns="http://www.w3.org/2000/svg">
<g clip-path="url(#clip0_1_324)">
<path d="M3.04445 69.7665C3.23664 69.7653 3.42719 69.7306 3.60772 69.6639C3.80042 69.5953 3.98247 69.4994 4.14843 69.3789C4.31607 69.2605 4.46433 69.1162 4.58779 68.9514C4.70696 68.7997 4.78985 68.6221 4.82999 68.4326V66.7227C4.75909 66.5263 4.6563 66.3433 4.52584 66.1811C4.39382 66.0132 4.2404 65.8637 4.0696 65.7366C3.90264 65.6177 3.72079 65.5219 3.52885 65.4516C3.30847 65.3686 3.07341 65.3331 2.8387 65.3473C2.60398 65.3616 2.37478 65.4252 2.16576 65.5342C1.93099 65.6572 1.72387 65.828 1.55743 66.0358C1.38572 66.2497 1.25315 66.4929 1.16595 66.754C1.07644 67.0201 1.03077 67.2994 1.03078 67.5805C1.02912 67.8733 1.08362 68.1637 1.19129 68.4355C1.28769 68.6951 1.43309 68.9332 1.61938 69.1366C1.79865 69.3352 2.01497 69.496 2.25587 69.6097C2.50362 69.7297 2.77544 69.7902 3.05009 69.7864L3.04445 69.7665ZM2.8135 70.6414C2.42415 70.6443 2.03915 70.5586 1.68697 70.3906C1.34788 70.2279 1.04436 69.9982 0.794215 69.7151C0.542583 69.4275 0.345852 69.0951 0.214037 68.7348C0.075082 68.3593 0.00447597 67.9615 0.00563187 67.5606C0.00440506 67.1551 0.0710482 66.7522 0.202761 66.3693C0.32913 66.0075 0.520049 65.6723 0.766025 65.3803C1.00001 65.1023 1.28748 64.8754 1.61092 64.7134C1.94593 64.5485 2.31424 64.4646 2.68677 64.4683C3.13704 64.4616 3.57881 64.5927 3.95412 64.8445C4.31168 65.0801 4.6136 65.3924 4.83845 65.7594V62.1997H5.8298V69.2933C5.8298 69.5299 5.93682 69.6525 6.14804 69.6582V70.5131L5.89175 70.5502C5.82979 70.5502 5.76782 70.5502 5.70586 70.5502C5.51572 70.5516 5.33231 70.4791 5.19331 70.3478C5.1252 70.2921 5.07016 70.2218 5.03217 70.142C4.99418 70.0621 4.97418 69.9747 4.97363 69.8861V69.3846C4.74805 69.7642 4.42744 70.0768 4.04423 70.2908C3.672 70.5061 3.25065 70.6191 2.82195 70.6186" fill="#42873E"/>
<path d="M12.096 67.1444C12.0758 66.8732 12.0051 66.6082 11.8876 66.3635C11.7782 66.1354 11.6294 65.9289 11.4483 65.7536C11.269 65.5843 11.0598 65.4509 10.8315 65.3603C10.5957 65.2624 10.3429 65.2131 10.088 65.215C9.83313 65.2137 9.58049 65.263 9.34447 65.3603C9.11625 65.4519 8.90773 65.5874 8.7305 65.7594C8.55108 65.9335 8.40583 66.1405 8.30241 66.3693C8.19053 66.6133 8.12373 66.876 8.10529 67.1444H12.096ZM10.0767 70.6357C9.65843 70.6406 9.24386 70.5561 8.86007 70.3877C8.50277 70.2335 8.18062 70.0065 7.91376 69.7208C7.64716 69.4361 7.43857 69.101 7.29982 68.7348C7.1527 68.3553 7.07814 67.951 7.08014 67.5434C7.07761 67.1377 7.1522 66.7351 7.29982 66.3578C7.4409 65.9923 7.65138 65.6583 7.9194 65.3746C8.19995 65.0805 8.53719 64.8478 8.9102 64.691C9.28321 64.5341 9.68409 64.4564 10.088 64.4626C10.5047 64.4577 10.9176 64.5433 11.299 64.7134C11.6509 64.8712 11.968 65.099 12.2312 65.3832C12.4881 65.6647 12.6889 65.9937 12.8226 66.3522C12.9601 66.7162 13.0307 67.1025 13.031 67.4922C13.031 67.5748 13.031 67.6517 13.031 67.7201C13.031 67.7885 13.031 67.8427 13.0141 67.8798H8.13344C8.15173 68.1598 8.22044 68.4341 8.33621 68.6891C8.44221 68.9244 8.5913 69.1371 8.77557 69.3161C8.95296 69.4907 9.16125 69.6299 9.38954 69.7265C9.61906 69.8261 9.86643 69.8766 10.1161 69.8747C10.2952 69.8759 10.4736 69.851 10.6456 69.8006C10.8146 69.7548 10.9774 69.6877 11.13 69.6011C11.2791 69.5201 11.4149 69.4163 11.5328 69.2933C11.6466 69.1754 11.7366 69.0359 11.7975 68.883L12.6424 69.1223C12.5434 69.345 12.4082 69.5492 12.2424 69.7265C12.0704 69.9116 11.8732 70.0709 11.6567 70.1997C11.425 70.3378 11.1758 70.4432 10.916 70.5131C10.641 70.5913 10.3567 70.6307 10.0711 70.63" fill="#42873E"/>
<path d="M16.2023 70.6357C15.7241 70.6371 15.2487 70.5611 14.7942 70.4106C14.3616 70.2773 13.9595 70.0584 13.6113 69.7665L14.0394 69.0939C14.3538 69.344 14.7031 69.5456 15.0758 69.6924C15.4248 69.8264 15.7953 69.894 16.1685 69.8919C16.5269 69.9106 16.8827 69.8213 17.1909 69.6354C17.3107 69.5584 17.4085 69.4512 17.4747 69.3242C17.5409 69.1972 17.5731 69.055 17.5682 68.9115C17.5718 68.7805 17.5365 68.6514 17.4669 68.541C17.3878 68.4286 17.2836 68.3368 17.1627 68.2731C16.9975 68.1843 16.8227 68.1154 16.6417 68.0679C16.4333 68.008 16.1882 67.9425 15.9094 67.8741C15.5574 67.7829 15.2532 67.6945 14.9969 67.6119C14.7748 67.5464 14.5625 67.4506 14.3661 67.3269C14.2117 67.2253 14.0871 67.0836 14.0056 66.9165C13.9248 66.7299 13.8863 66.5273 13.893 66.3237C13.8884 66.0493 13.9482 65.7778 14.0676 65.5314C14.1823 65.307 14.346 65.1121 14.5463 64.9614C14.7616 64.8005 15.004 64.6808 15.2617 64.608C15.5495 64.5265 15.8472 64.4862 16.146 64.4883C16.5694 64.4855 16.9899 64.5588 17.388 64.7049C17.7422 64.8342 18.0705 65.0273 18.3568 65.2749L17.9062 65.8791C17.6591 65.6605 17.372 65.493 17.0613 65.386C16.7568 65.2752 16.4358 65.2183 16.1122 65.2179C15.7908 65.2089 15.4731 65.2897 15.1941 65.4516C15.0698 65.53 14.969 65.6412 14.9025 65.7733C14.836 65.9054 14.8063 66.0533 14.8167 66.2011C14.8131 66.3195 14.8382 66.4369 14.8899 66.5431C14.9484 66.6432 15.0319 66.7258 15.1321 66.7825C15.2691 66.8604 15.4147 66.9216 15.5658 66.9649C15.7433 67.0162 15.9545 67.0761 16.2023 67.1359C16.5938 67.2271 16.9346 67.3212 17.2247 67.4209C17.4788 67.4999 17.7213 67.613 17.9456 67.7572C18.1227 67.8719 18.2696 68.0284 18.3737 68.2132C18.4725 68.4108 18.5209 68.6303 18.5145 68.8516C18.5231 69.1073 18.4702 69.3612 18.3603 69.5916C18.2504 69.8219 18.0868 70.0218 17.8837 70.174C17.3896 70.5225 16.7955 70.6959 16.1939 70.6671" fill="#42873E"/>
<path d="M19.3003 67.5321C19.2972 67.1268 19.3699 66.7245 19.5143 66.3465C19.6585 65.9841 19.873 65.6546 20.1452 65.3775C20.4126 65.0959 20.7322 64.8702 21.0858 64.7134C21.4728 64.5462 21.8901 64.4628 22.3109 64.4684C22.8423 64.454 23.3671 64.5902 23.8261 64.8616C24.241 65.1129 24.5755 65.4801 24.7893 65.919L23.8064 66.2325C23.6625 65.9573 23.4435 65.7298 23.1755 65.577C22.9011 65.4187 22.5901 65.3371 22.2743 65.3404C22.009 65.3395 21.7467 65.3969 21.5054 65.5086C21.2684 65.6155 21.0571 65.773 20.8859 65.9703C20.7085 66.1751 20.5692 66.4107 20.4747 66.6657C20.3197 67.0779 20.2777 67.5249 20.353 67.9593C20.4284 68.3938 20.6183 68.7996 20.9027 69.1338C21.0754 69.3324 21.2862 69.4933 21.5223 69.6069C21.7607 69.7214 22.0217 69.7798 22.2856 69.7778C22.4591 69.7786 22.6318 69.7537 22.7981 69.7038C22.9602 69.6584 23.1155 69.5913 23.26 69.5043C23.3939 69.426 23.517 69.3301 23.6261 69.2193C23.7265 69.1179 23.8035 68.9952 23.8514 68.8602L24.8202 69.1452C24.7294 69.3669 24.6018 69.5712 24.4429 69.7494C24.2804 69.934 24.0903 70.0917 23.8796 70.2168C23.6521 70.3518 23.4077 70.4553 23.153 70.5246C22.8782 70.6034 22.5938 70.6427 22.3081 70.6414C21.9037 70.6454 21.5027 70.5653 21.1301 70.4059C20.7576 70.2466 20.4214 70.0115 20.1423 69.7152C19.8767 69.4297 19.6682 69.0948 19.5284 68.7291C19.3813 68.3496 19.3067 67.9454 19.3087 67.5378" fill="#42873E"/>
<path d="M27.7633 70.6357C27.4957 70.6542 27.2276 70.6065 26.9823 70.4968C26.737 70.387 26.5217 70.2186 26.3551 70.0059C26.0397 69.5898 25.882 68.9666 25.882 68.1363V64.5652H26.8733V67.9425C26.8733 69.1594 27.2929 69.7665 28.1266 69.7665C28.5397 69.7638 28.9409 69.6258 29.27 69.3732C29.6346 69.1019 29.9111 68.7268 30.0642 68.2959V64.5652H31.0555V69.2876C31.0555 69.5242 31.1626 69.6468 31.371 69.6525V70.5075C31.2583 70.5246 31.171 70.5331 31.1063 70.5388H30.9204C30.7404 70.544 30.5653 70.4798 30.4303 70.3592C30.367 70.3051 30.3157 70.238 30.2798 70.1623C30.2439 70.0867 30.2242 70.0042 30.2219 69.9203L30.1994 69.225C29.9533 69.6581 29.595 70.0148 29.163 70.2567C28.7321 70.4977 28.2471 70.6223 27.7548 70.6186" fill="#42873E"/>
<path d="M35.4941 69.7665C35.7748 69.7697 36.0524 69.7073 36.3052 69.5841C36.5501 69.4654 36.7693 69.2988 36.9502 69.0939C37.1295 68.8879 37.2699 68.6502 37.3642 68.3928C37.4635 68.1288 37.5141 67.8487 37.5134 67.5663C37.5134 67.281 37.4658 66.9977 37.3726 66.7284C37.2839 66.4691 37.1504 66.2279 36.9783 66.0159C36.8085 65.8119 36.6009 65.6434 36.3672 65.52C36.126 65.3912 35.8569 65.3255 35.5842 65.329C35.3796 65.3284 35.1768 65.3681 34.9872 65.4459C34.7991 65.5206 34.6227 65.6223 34.4633 65.748C34.3015 65.8738 34.1574 66.0214 34.0353 66.1869C33.9105 66.354 33.803 66.5335 33.7142 66.7227V68.4327C33.752 68.6247 33.8351 68.8046 33.9564 68.9571C34.081 69.1177 34.2291 69.258 34.3958 69.3732C34.5622 69.4928 34.7442 69.5887 34.9365 69.6582C35.117 69.7249 35.3076 69.7596 35.4998 69.7608L35.4941 69.7665ZM35.7476 70.6158C35.3073 70.6199 34.8745 70.5006 34.4971 70.2709C34.1323 70.0536 33.8266 69.7481 33.6072 69.3817V70.5075H32.7285V62.1826H33.7198V65.7423C33.9538 65.367 34.2651 65.0472 34.6323 64.8046C34.9859 64.5899 35.3874 64.469 35.7994 64.4531C36.2115 64.4371 36.6209 64.5267 36.9896 64.7134C37.3074 64.8865 37.5887 65.1207 37.8176 65.4031C38.0513 65.7 38.2306 66.0369 38.3471 66.3978C38.4706 66.7707 38.5333 67.1615 38.533 67.5549C38.5343 67.96 38.4618 68.362 38.3189 68.7405C38.1846 69.0991 37.986 69.4295 37.7331 69.7152C37.4849 69.9943 37.183 70.2193 36.846 70.3764C36.5031 70.5421 36.1276 70.6269 35.7476 70.6243" fill="#42873E"/>
<path d="M42.8559 65.443C42.3906 65.4499 41.936 65.5849 41.5407 65.8335C41.1664 66.0695 40.8824 66.4273 40.7352 66.8481V70.5074H39.7439V64.5538H40.6677V65.9475C40.8538 65.5564 41.1277 65.2148 41.4675 64.95C41.7715 64.7052 42.1395 64.5556 42.5264 64.5196H42.7208C42.7658 64.5163 42.8109 64.5163 42.8559 64.5196V65.443Z" fill="#42873E"/>
<path d="M45.6047 69.8805C45.9433 69.8838 46.279 69.8158 46.5904 69.6809C46.8657 69.5717 47.1062 69.3884 47.286 69.1509C47.349 69.0949 47.4001 69.0268 47.4364 68.9504C47.4727 68.874 47.4934 68.7909 47.4972 68.7063V67.8285C47.0201 67.6385 46.5117 67.5418 45.999 67.5435C45.5727 67.5242 45.1507 67.6354 44.7879 67.8627C44.6453 67.9483 44.5271 68.0701 44.4452 68.216C44.3632 68.362 44.3202 68.527 44.3204 68.6949C44.3183 68.8559 44.351 69.0154 44.4162 69.1623C44.4827 69.3064 44.5787 69.4347 44.6978 69.5384C44.8173 69.6485 44.957 69.7337 45.109 69.7892C45.2708 69.8518 45.4427 69.8827 45.6159 69.8805H45.6047ZM45.3568 70.6357C45.0909 70.6381 44.827 70.5888 44.5795 70.4903C44.3477 70.4019 44.1353 70.2683 43.9543 70.0971C43.7777 69.9318 43.6359 69.7321 43.5375 69.51C43.4343 69.2791 43.3823 69.0281 43.3854 68.7747C43.3819 68.5143 43.4439 68.2573 43.5656 68.028C43.6899 67.7999 43.8655 67.6046 44.0782 67.458C44.3185 67.2889 44.585 67.1617 44.8668 67.0818C45.1909 66.9878 45.5266 66.9417 45.8637 66.945C46.1547 66.945 46.445 66.9718 46.7312 67.0248C46.9967 67.0708 47.2571 67.1433 47.5085 67.2414V66.7626C47.5304 66.5509 47.5051 66.337 47.4346 66.1365C47.3641 65.936 47.2501 65.7541 47.101 65.604C46.9519 65.4539 46.7714 65.3395 46.5729 65.2693C46.3744 65.199 46.1629 65.1746 45.9539 65.1979C45.2746 65.2293 44.6215 65.4721 44.0838 65.8933L43.7571 65.2435C44.4246 64.7574 45.2218 64.4872 46.044 64.4683C46.7054 64.4298 47.3554 64.6549 47.8549 65.0953C48.0784 65.3286 48.2514 65.6065 48.3629 65.9112C48.4744 66.2159 48.522 66.5408 48.5026 66.8652V69.2934C48.5026 69.5299 48.6069 69.6525 48.8181 69.6582V70.5132L48.559 70.5502C48.4914 70.5502 48.4182 70.5502 48.3449 70.5502C48.259 70.5546 48.1731 70.5409 48.0926 70.51C48.0121 70.4791 47.9388 70.4317 47.8774 70.3707C47.7607 70.2569 47.6861 70.1059 47.6662 69.9432L47.6437 69.5214C47.3868 69.8759 47.0432 70.1568 46.6467 70.3365C46.2427 70.5264 45.8023 70.6237 45.3568 70.6215" fill="#42873E"/>
<path d="M54.2733 67.5321C54.2519 67.9458 54.3845 68.3525 54.645 68.6721C54.8248 68.8755 55.064 69.0156 55.3279 69.072C55.5918 69.1284 55.8666 69.0981 56.1123 68.9856C56.2696 68.909 56.4096 68.8003 56.5235 68.6664C56.6469 68.5202 56.7424 68.352 56.8051 68.1705C56.8743 67.967 56.9086 67.753 56.9065 67.5378C56.9279 67.1241 56.7952 66.7173 56.5347 66.3978C56.4195 66.2606 56.2756 66.1511 56.1134 66.0772C55.9512 66.0032 55.7748 65.9667 55.5969 65.9703C55.4161 65.9687 55.2372 66.0076 55.0731 66.0843C54.9127 66.1585 54.7704 66.2674 54.6563 66.4035C54.5328 66.5497 54.4373 66.7178 54.3746 66.8994C54.3055 67.1029 54.2712 67.3169 54.2733 67.5321ZM55.5913 70.6357C55.1306 70.6426 54.6731 70.5574 54.2451 70.3849C53.8701 70.2295 53.5307 69.9977 53.2481 69.7038C52.9779 69.4197 52.7688 69.082 52.6341 68.7119C52.3575 67.9503 52.3575 67.1139 52.6341 66.3522C52.7688 65.9822 52.9779 65.6444 53.2481 65.3604C53.5304 65.0647 53.8698 64.831 54.2451 64.6735C55.1098 64.3316 56.07 64.3316 56.9347 64.6735C57.3075 64.8324 57.6448 65.066 57.926 65.3604C58.1961 65.6456 58.4068 65.9829 58.5456 66.3522C58.6888 66.7286 58.7614 67.1287 58.7596 67.5321C58.7605 67.9348 58.69 68.3344 58.5512 68.7119C58.4166 69.082 58.2075 69.4197 57.9373 69.7038C57.6547 69.9977 57.3153 70.2295 56.9403 70.3849C56.5114 70.5577 56.0529 70.6429 55.5913 70.6357Z" fill="#42873E"/>
<path d="M62.6715 70.5074V66.4035H61.9167V65.0212H62.6715V64.5225C62.6671 64.1786 62.7165 63.8361 62.818 63.5079C62.9045 63.224 63.0463 62.9604 63.2348 62.7327C63.4126 62.5208 63.6362 62.3531 63.8882 62.2425C64.1549 62.1263 64.4427 62.0681 64.7331 62.0715C65.2658 62.0825 65.7909 62.2028 66.2764 62.4249L65.9497 63.7929C65.8205 63.7373 65.6867 63.6935 65.5498 63.6618C65.4151 63.6291 65.2772 63.6119 65.1386 63.6105C64.6965 63.6105 64.474 63.8955 64.474 64.4655V65.0355H65.8484V66.4177H64.474V70.5074H62.6715Z" fill="#42873E"/>
<path d="M70.3685 66.0957C69.9647 66.0962 69.5641 66.1696 69.1857 66.3123C68.8674 66.4211 68.5965 66.6387 68.4197 66.9278V70.5074H66.6144V64.5225H68.2732V65.7337C68.4531 65.357 68.7221 65.0311 69.0561 64.7847C69.3526 64.5647 69.7082 64.4415 70.0757 64.4313H70.2559C70.2934 64.4285 70.331 64.4285 70.3685 64.4313V66.0957Z" fill="#42873E"/>
<path d="M74.9113 66.9621C74.893 66.6209 74.7482 66.2993 74.5058 66.0615C74.2712 65.8395 73.9593 65.7206 73.6383 65.7309C73.478 65.7248 73.318 65.7515 73.1681 65.8093C73.0181 65.8671 72.8811 65.9548 72.7653 66.0672C72.5275 66.3054 72.3851 66.6241 72.3654 66.9621H74.9113ZM73.6609 70.6357C73.2041 70.6431 72.7504 70.5588 72.3259 70.3877C71.9494 70.2371 71.6072 70.0101 71.3205 69.7208C71.0482 69.4428 70.8353 69.111 70.6953 68.7461C70.5535 68.3773 70.4809 67.9849 70.4812 67.5891C70.4794 67.1709 70.5519 66.7557 70.6953 66.3636C70.8331 65.9879 71.0438 65.6439 71.3149 65.3518C71.5971 65.0555 71.9377 64.8224 72.3147 64.6678C72.7426 64.495 73.2002 64.4098 73.6609 64.417C74.1198 64.4095 74.5755 64.4948 75.0015 64.6678C75.3749 64.8229 75.7125 65.0549 75.9928 65.349C76.2624 65.6314 76.4714 65.9671 76.6067 66.3351C76.7472 66.7101 76.8179 67.1082 76.8151 67.5093C76.8151 67.6147 76.8151 67.7201 76.8151 67.8227C76.8111 67.9128 76.7998 68.0024 76.7814 68.0907H72.4104C72.4134 68.2662 72.4537 68.439 72.5285 68.5973C72.6033 68.7557 72.711 68.8959 72.8441 69.0083C73.0932 69.2151 73.4064 69.3261 73.7285 69.3218C73.9939 69.322 74.2552 69.2554 74.4889 69.1281C74.7127 69.0234 74.8881 68.8356 74.9789 68.6036L76.511 69.0368C76.2682 69.5155 75.8923 69.9118 75.4295 70.1768C74.8955 70.4865 74.2874 70.6413 73.6722 70.6243" fill="#42873E"/>
<path d="M79.9722 70.6357C79.4665 70.6354 78.9642 70.5517 78.4852 70.3877C78.0263 70.2432 77.6036 70.0002 77.246 69.6752L77.8881 68.5581C78.2168 68.7877 78.5702 68.9789 78.9414 69.1281C79.2542 69.259 79.5887 69.3286 79.9271 69.3333C80.1156 69.3455 80.3035 69.3019 80.4678 69.2078C80.529 69.1698 80.579 69.116 80.6127 69.0518C80.6463 68.9877 80.6624 68.9156 80.6594 68.8431C80.6578 68.763 80.6344 68.6849 80.5916 68.6175C80.5489 68.55 80.4885 68.4959 80.4172 68.4611C80.1486 68.3263 79.8649 68.2248 79.5723 68.1591C79.1752 68.0451 78.8372 67.9339 78.564 67.8285C78.3258 67.742 78.1003 67.6231 77.8937 67.4751C77.7333 67.3625 77.6051 67.2092 77.522 67.0305C77.443 66.8433 77.4046 66.6411 77.4093 66.4377C77.4052 66.149 77.4669 65.8633 77.5896 65.6026C77.7063 65.3555 77.8755 65.1375 78.0852 64.9642C78.3083 64.7826 78.5621 64.6435 78.8344 64.5538C79.138 64.4535 79.4556 64.4034 79.775 64.4056C80.1966 64.4032 80.6162 64.4647 81.0199 64.588C81.4374 64.7252 81.8214 64.9506 82.1464 65.2492L81.4479 66.3465C81.1668 66.1421 80.8646 65.9691 80.5467 65.8306C80.3035 65.7295 80.0435 65.6764 79.7807 65.6739C79.6079 65.6684 79.4367 65.7097 79.285 65.7936C79.2211 65.8342 79.1687 65.891 79.1329 65.9583C79.0972 66.0256 79.0793 66.1011 79.081 66.1775C79.0827 66.2538 79.1039 66.3285 79.1427 66.3941C79.1814 66.4597 79.2362 66.5139 79.3019 66.5517C79.5624 66.678 79.8365 66.7737 80.1186 66.8367C80.4793 66.9311 80.8347 67.0453 81.1832 67.1786C81.4344 67.272 81.6714 67.4006 81.8873 67.5606C82.0565 67.6871 82.1928 67.8534 82.2844 68.0451C82.371 68.2502 82.4132 68.4718 82.4083 68.6949C82.4195 68.9682 82.3658 69.2402 82.2516 69.4882C82.1374 69.7361 81.9661 69.9528 81.7521 70.1199C81.2397 70.4956 80.6153 70.6817 79.9834 70.6471" fill="#42873E"/>
<path d="M82.9153 67.5207C82.9136 67.1173 82.9862 66.7172 83.1294 66.3408C83.2671 65.971 83.478 65.6335 83.749 65.349C84.0308 65.0542 84.3704 64.8222 84.746 64.6678C85.1739 64.495 85.6315 64.4098 86.0922 64.417C86.6968 64.3973 87.2949 64.5493 87.8186 64.8559C88.2662 65.1293 88.6292 65.5243 88.8662 65.9959L87.106 66.5317C87.0031 66.3508 86.8531 66.202 86.6723 66.1015C86.4915 66.001 86.287 65.9527 86.0809 65.9617C85.9031 65.958 85.7267 65.9939 85.5642 66.0668C85.4017 66.1396 85.2569 66.2478 85.1402 66.3835C84.8742 66.7003 84.7391 67.1085 84.7628 67.5235C84.7601 67.7425 84.7944 67.9603 84.8642 68.1676C84.9249 68.3501 85.0206 68.5186 85.1459 68.6635C85.2633 68.7984 85.4071 68.9071 85.5683 68.9827C85.7468 69.0647 85.9419 69.1028 86.1377 69.0939C86.3335 69.085 86.5244 69.0293 86.6949 68.9314C86.872 68.833 87.0169 68.6845 87.1117 68.5039L88.8719 69.0511C88.6425 69.5263 88.2801 69.9227 87.8298 70.1911C87.3617 70.4488 86.8433 70.5992 86.3114 70.6317C85.7795 70.6642 85.247 70.578 84.7516 70.3792C84.3757 70.2211 84.0348 69.9886 83.749 69.6952C83.4747 69.4122 83.2617 69.0744 83.1237 68.7034C82.9805 68.327 82.9079 67.9269 82.9097 67.5235" fill="#42873E"/>
<path d="M91.1417 67.5321C91.1204 67.9458 91.2531 68.3525 91.5135 68.6721C91.6299 68.8101 91.7752 68.92 91.9389 68.994C92.1026 69.0679 92.2806 69.104 92.4598 69.0996C92.6398 69.1021 92.8179 69.0631 92.9808 68.9856C93.1386 68.9098 93.2787 68.801 93.392 68.6664C93.5154 68.5202 93.6109 68.352 93.6736 68.1705C93.7428 67.967 93.7771 67.753 93.775 67.5378C93.7964 67.1241 93.6637 66.7173 93.4033 66.3978C93.288 66.2606 93.1441 66.1511 92.9819 66.0772C92.8197 66.0032 92.6433 65.9667 92.4654 65.9703C92.2869 65.9686 92.1101 66.0065 91.9476 66.0813C91.7851 66.1561 91.6408 66.2661 91.5248 66.4035C91.4013 66.5497 91.3058 66.7178 91.2431 66.8994C91.174 67.1029 91.1397 67.3169 91.1417 67.5321ZM92.4598 70.6357C91.9991 70.6426 91.5416 70.5574 91.1136 70.3849C90.7386 70.2295 90.3992 69.9977 90.1166 69.7038C89.8464 69.4197 89.6373 69.082 89.5027 68.7119C89.226 67.9503 89.226 67.1139 89.5027 66.3522C89.6373 65.9822 89.8464 65.6444 90.1166 65.3604C90.3989 65.0647 90.7383 64.831 91.1136 64.6735C91.9783 64.3316 92.9385 64.3316 93.8032 64.6735C94.1761 64.8324 94.5133 65.066 94.7945 65.3604C95.0646 65.6456 95.2753 65.9829 95.4141 66.3522C95.5573 66.7286 95.6299 67.1287 95.6282 67.5321C95.6291 67.9348 95.5585 68.3344 95.4198 68.7119C95.2851 69.082 95.076 69.4197 94.8058 69.7038C94.5232 69.9977 94.1838 70.2295 93.8088 70.3849C93.3799 70.5577 92.9214 70.6429 92.4598 70.6357Z" fill="#42873E"/>
<path d="M100.272 66.0957C99.8685 66.0962 99.4679 66.1696 99.0895 66.3123C98.7705 66.4211 98.4987 66.6387 98.3206 66.9278V70.5074H96.5182V64.5225H98.177V65.7337C98.356 65.3565 98.6251 65.0303 98.9599 64.7847C99.2564 64.5647 99.612 64.4415 99.9794 64.4313H100.16C100.197 64.4285 100.235 64.4285 100.272 64.4313V66.0957Z" fill="#42873E"/>
<path d="M106.733 69.7665C106.925 69.7649 107.116 69.7302 107.296 69.6639C107.489 69.5953 107.671 69.4994 107.837 69.3789C108.005 69.2605 108.153 69.1162 108.276 68.9514C108.394 68.799 108.477 68.6217 108.519 68.4326V66.7227C108.448 66.5263 108.345 66.3433 108.214 66.1811C108.082 66.0132 107.929 65.8637 107.758 65.7366C107.591 65.6177 107.409 65.5219 107.217 65.4516C106.997 65.3682 106.761 65.3325 106.526 65.3467C106.291 65.3609 106.061 65.4248 105.851 65.5342C105.617 65.6572 105.41 65.828 105.243 66.0358C105.071 66.2492 104.94 66.4926 104.854 66.754C104.765 67.0201 104.719 67.2994 104.719 67.5805C104.718 67.873 104.772 68.1631 104.877 68.4355C104.974 68.6946 105.12 68.9325 105.305 69.1366C105.485 69.3346 105.701 69.4953 105.942 69.6097C106.19 69.7294 106.463 69.7898 106.739 69.7864L106.733 69.7665ZM106.499 70.6414C106.11 70.6439 105.725 70.5582 105.373 70.3906C105.034 70.2282 104.732 69.9984 104.483 69.7151C104.23 69.4282 104.033 69.0956 103.903 68.7348C103.762 68.3597 103.692 67.9616 103.694 67.5606C103.692 67.1549 103.758 66.7519 103.891 66.3693C104.018 66.0075 104.209 65.6723 104.455 65.3803C104.689 65.1028 104.976 64.8759 105.299 64.7134C105.635 64.5488 106.003 64.4649 106.375 64.4683C106.826 64.4622 107.269 64.5933 107.645 64.8445C108.002 65.0809 108.304 65.393 108.53 65.7594V62.1997H109.521V69.2933C109.521 69.5299 109.625 69.6525 109.837 69.6582V70.5132L109.583 70.5502C109.518 70.5502 109.456 70.5502 109.397 70.5502C109.207 70.5516 109.024 70.4791 108.885 70.3478C108.817 70.2921 108.761 70.2218 108.723 70.142C108.685 70.0621 108.666 69.9747 108.665 69.8861V69.3846C108.44 69.7595 108.124 70.0698 107.747 70.2859C107.37 70.5019 106.944 70.6165 106.51 70.6186" fill="#42873E"/>
<path d="M115.782 67.1444C115.763 66.873 115.692 66.6078 115.573 66.3636C115.466 66.1342 115.317 65.9274 115.134 65.7537C114.857 65.4934 114.512 65.3183 114.14 65.2487C113.768 65.1791 113.384 65.2178 113.033 65.3604C112.804 65.4512 112.596 65.5868 112.419 65.7594C112.239 65.933 112.094 66.14 111.991 66.3693C111.878 66.6129 111.811 66.8758 111.794 67.1444H115.782ZM113.765 70.6357C113.347 70.6411 112.932 70.5566 112.549 70.3877C112.191 70.2329 111.868 70.006 111.6 69.7208C111.334 69.4354 111.125 69.1005 110.986 68.7348C110.838 68.3553 110.764 67.951 110.766 67.5435C110.763 67.1377 110.838 66.7352 110.986 66.3578C111.205 65.7919 111.589 65.3071 112.088 64.9684C112.587 64.6297 113.176 64.4533 113.777 64.4626C114.193 64.458 114.606 64.5435 114.988 64.7134C115.339 64.8713 115.655 65.0991 115.917 65.3832C116.176 65.6638 116.378 65.993 116.511 66.3522C116.648 66.7163 116.717 67.1027 116.717 67.4922C116.717 67.5748 116.717 67.6518 116.717 67.7202C116.716 67.7737 116.71 67.8272 116.7 67.8798H111.819C111.837 68.1602 111.907 68.4347 112.025 68.6892C112.131 68.9244 112.28 69.1371 112.464 69.3161C112.641 69.4913 112.85 69.6306 113.078 69.7266C113.308 69.8261 113.555 69.8766 113.805 69.8748C113.984 69.8759 114.162 69.851 114.334 69.8007C114.503 69.7543 114.666 69.6873 114.819 69.6011C114.967 69.52 115.102 69.4162 115.219 69.2933C115.333 69.1761 115.423 69.0365 115.483 68.883L116.328 69.1224C116.23 69.3456 116.095 69.55 115.928 69.7266C115.757 69.9123 115.559 70.0717 115.342 70.1997C115.112 70.3378 114.864 70.4432 114.605 70.5132C114.33 70.5913 114.045 70.6307 113.76 70.63" fill="#42873E"/>
<path d="M120.279 67.5321C120.276 67.1268 120.349 66.7245 120.493 66.3465C120.63 65.984 120.837 65.6526 121.102 65.3718C121.37 65.0908 121.689 64.8652 122.042 64.7077C122.429 64.5405 122.847 64.4571 123.268 64.4626C123.799 64.4483 124.324 64.5846 124.783 64.8559C125.198 65.1072 125.532 65.4744 125.746 65.9133L124.777 66.2211C124.634 65.9453 124.415 65.7176 124.146 65.5656C123.872 65.4073 123.561 65.3257 123.245 65.329C122.98 65.3284 122.717 65.3858 122.476 65.4972C122.239 65.6041 122.028 65.7616 121.857 65.9589C121.679 66.1637 121.54 66.3993 121.445 66.6543C121.29 67.0665 121.248 67.5135 121.324 67.9479C121.399 68.3824 121.589 68.7882 121.873 69.1224C122.047 69.3217 122.258 69.4828 122.496 69.5955C122.733 69.7097 122.993 69.7681 123.256 69.7665C123.43 69.7672 123.602 69.7423 123.769 69.6924C123.931 69.647 124.086 69.5799 124.231 69.4928C124.365 69.4153 124.488 69.3194 124.597 69.2078C124.697 69.1065 124.774 68.9838 124.822 68.8488L125.791 69.1338C125.7 69.3555 125.572 69.5598 125.414 69.738C125.251 69.9226 125.061 70.0803 124.85 70.2053C124.623 70.3404 124.378 70.4439 124.124 70.5132C123.849 70.592 123.564 70.6313 123.279 70.63C122.874 70.6332 122.474 70.5526 122.101 70.3933C121.729 70.2341 121.393 69.9994 121.113 69.7038C120.847 69.4183 120.639 69.0834 120.499 68.7177C120.352 68.3382 120.277 67.934 120.279 67.5264" fill="#42873E"/>
<path d="M128.689 69.8805C129.028 69.8838 129.363 69.8158 129.675 69.681C129.95 69.5726 130.19 69.389 130.368 69.1509C130.431 69.0954 130.483 69.0274 130.52 68.9509C130.557 68.8745 130.578 68.7912 130.582 68.7063V67.8285C130.104 67.6387 129.596 67.542 129.083 67.5435C128.657 67.5236 128.235 67.6349 127.872 67.8627C127.729 67.9482 127.611 68.0699 127.528 68.2158C127.446 68.3617 127.402 68.5268 127.402 68.6949C127.401 68.8558 127.434 69.0151 127.498 69.1623C127.563 69.307 127.659 69.4353 127.779 69.5385C127.899 69.6485 128.039 69.7337 128.191 69.7893C128.352 69.8518 128.524 69.8827 128.697 69.8805H128.689ZM128.438 70.6357C128.172 70.6379 127.907 70.5885 127.658 70.4903C127.427 70.4013 127.214 70.2677 127.033 70.0971C126.857 69.931 126.716 69.7315 126.616 69.51C126.513 69.2791 126.461 69.0281 126.464 68.7747C126.462 68.5145 126.524 68.2578 126.644 68.028C126.77 67.801 126.945 67.606 127.157 67.458C127.398 67.2889 127.666 67.1618 127.948 67.0818C128.272 66.9878 128.608 66.9417 128.945 66.945C129.236 66.9451 129.527 66.9718 129.813 67.0248C130.078 67.0708 130.339 67.1433 130.59 67.2414V66.7626C130.612 66.5509 130.587 66.337 130.516 66.1365C130.446 65.936 130.332 65.7541 130.182 65.604C130.033 65.4539 129.853 65.3396 129.654 65.2693C129.456 65.199 129.244 65.1746 129.035 65.1979C128.355 65.2296 127.701 65.4724 127.163 65.8933L126.836 65.2435C127.504 64.7577 128.303 64.4875 129.126 64.4684C129.786 64.4284 130.436 64.6537 130.934 65.0953C131.158 65.3282 131.331 65.606 131.443 65.9108C131.554 66.2157 131.601 66.5407 131.581 66.8652V69.2934C131.581 69.5299 131.688 69.6525 131.897 69.6582V70.5132L131.638 70.5502C131.57 70.5502 131.5 70.5502 131.424 70.5502C131.338 70.5545 131.252 70.5407 131.171 70.5098C131.091 70.4789 131.018 70.4315 130.956 70.3707C130.841 70.2559 130.768 70.1053 130.748 69.9432L130.725 69.5214C130.468 69.8759 130.125 70.1568 129.728 70.3365C129.324 70.5258 128.884 70.6231 128.438 70.6215" fill="#42873E"/>
<path d="M135.823 69.7665C136.015 69.7653 136.206 69.7306 136.386 69.6639C136.579 69.5953 136.761 69.4994 136.927 69.3789C137.094 69.2605 137.243 69.1162 137.366 68.9514C137.485 68.7997 137.568 68.6221 137.608 68.4326V66.7227C137.537 66.5263 137.435 66.3433 137.304 66.1811C137.172 66.0132 137.019 65.8637 136.848 65.7366C136.681 65.6177 136.499 65.5219 136.307 65.4516C136.087 65.3686 135.852 65.3331 135.617 65.3473C135.382 65.3616 135.153 65.4252 134.944 65.5342C134.709 65.6572 134.502 65.828 134.336 66.0358C134.164 66.2492 134.032 66.4926 133.947 66.754C133.858 67.0201 133.812 67.2994 133.812 67.5805C133.809 67.8731 133.863 68.1635 133.97 68.4355C134.067 68.6945 134.212 68.9325 134.398 69.1366C134.577 69.3352 134.793 69.496 135.034 69.6097C135.282 69.7291 135.554 69.7896 135.828 69.7864L135.823 69.7665ZM135.592 70.6414C135.203 70.6443 134.818 70.5586 134.465 70.3906C134.127 70.2282 133.824 69.9984 133.575 69.7151C133.323 69.4276 133.125 69.0952 132.992 68.7348C132.853 68.3593 132.783 67.9615 132.784 67.5606C132.783 67.1551 132.849 66.7522 132.981 66.3693C133.107 66.0071 133.298 65.6717 133.544 65.3803C133.779 65.1028 134.066 64.8759 134.389 64.7134C134.724 64.5485 135.093 64.4646 135.465 64.4683C135.915 64.4616 136.357 64.5927 136.732 64.8445C137.09 65.0801 137.392 65.3924 137.617 65.7594V62.1997H138.611V69.2933C138.611 69.5299 138.715 69.6525 138.926 69.6582V70.5131L138.673 70.5502C138.608 70.5502 138.546 70.5502 138.487 70.5502C138.297 70.5527 138.113 70.4801 137.974 70.3478C137.906 70.2927 137.85 70.2226 137.811 70.1426C137.773 70.0627 137.752 69.975 137.752 69.8861V69.3846C137.527 69.7591 137.212 70.0691 136.835 70.2852C136.458 70.5012 136.033 70.616 135.6 70.6186" fill="#42873E"/>
<path d="M142.021 69.8805C142.36 69.884 142.696 69.8161 143.007 69.6809C143.283 69.5733 143.524 69.3897 143.703 69.1509C143.766 69.0951 143.818 69.027 143.854 68.9506C143.891 68.8742 143.912 68.7911 143.917 68.7063V67.8285C143.439 67.6387 142.929 67.542 142.416 67.5435C141.989 67.5242 141.567 67.6354 141.205 67.8627C141.062 67.9483 140.944 68.0701 140.862 68.216C140.78 68.362 140.737 68.527 140.737 68.6949C140.735 68.8559 140.768 69.0154 140.833 69.1623C140.899 69.3064 140.995 69.4347 141.115 69.5384C141.234 69.6485 141.374 69.7337 141.526 69.7892C141.688 69.8518 141.86 69.8827 142.033 69.8805H142.021ZM141.774 70.6357C141.508 70.6381 141.244 70.5888 140.996 70.4903C140.765 70.4013 140.552 70.2677 140.371 70.0971C140.194 69.9318 140.053 69.7321 139.954 69.51C139.851 69.2791 139.799 69.0281 139.802 68.7747C139.799 68.5143 139.861 68.2573 139.982 68.028C140.108 67.8005 140.283 67.6054 140.495 67.458C140.736 67.2894 141.002 67.1623 141.284 67.0818C141.608 66.9878 141.943 66.9417 142.281 66.945C142.572 66.945 142.864 66.9718 143.151 67.0248C143.416 67.0708 143.677 67.1433 143.928 67.2414V66.7626C143.95 66.5506 143.925 66.3364 143.854 66.1357C143.783 65.935 143.669 65.7529 143.52 65.6028C143.37 65.4526 143.189 65.3383 142.991 65.2683C142.792 65.1982 142.58 65.1742 142.371 65.1979C141.691 65.2296 141.038 65.4725 140.501 65.8933L140.174 65.2435C140.841 64.7574 141.639 64.4872 142.461 64.4683C143.122 64.4298 143.772 64.6549 144.272 65.0953C144.495 65.3286 144.668 65.6065 144.78 65.9112C144.891 66.2159 144.939 66.5408 144.919 66.8652V69.2934C144.919 69.5299 145.024 69.6525 145.235 69.6582V70.5132L144.976 70.5502C144.908 70.5502 144.835 70.5502 144.762 70.5502C144.676 70.5546 144.59 70.5409 144.509 70.51C144.429 70.4791 144.356 70.4317 144.294 70.3707C144.178 70.2566 144.105 70.1056 144.086 69.9432L144.063 69.5214C143.805 69.8754 143.46 70.1561 143.063 70.3365C142.659 70.5264 142.219 70.6237 141.774 70.6215" fill="#42873E"/>
<path d="M152.008 69.7665C152.2 69.7653 152.391 69.7306 152.571 69.6639C152.764 69.5953 152.946 69.4994 153.112 69.3789C153.28 69.2598 153.429 69.1156 153.554 68.9514C153.672 68.799 153.755 68.6217 153.797 68.4326V66.7227C153.724 66.5268 153.622 66.344 153.492 66.1811C153.359 66.0138 153.204 65.8644 153.033 65.7366C152.866 65.6177 152.684 65.5219 152.493 65.4516C152.272 65.3686 152.037 65.3331 151.802 65.3473C151.568 65.3616 151.338 65.4252 151.129 65.5342C150.895 65.6572 150.688 65.828 150.521 66.0358C150.349 66.2492 150.218 66.4926 150.132 66.754C150.043 67.0201 149.997 67.2994 149.997 67.5805C149.995 67.8731 150.048 68.1635 150.155 68.4355C150.252 68.6946 150.398 68.9325 150.583 69.1366C150.762 69.3352 150.979 69.496 151.22 69.6097C151.467 69.7291 151.739 69.7896 152.014 69.7864L152.008 69.7665ZM151.777 70.6414C151.388 70.6439 151.003 70.5582 150.651 70.3906C150.312 70.2282 150.01 69.9984 149.761 69.7151C149.508 69.4282 149.311 69.0956 149.181 68.7348C149.04 68.3597 148.97 67.9616 148.972 67.5606C148.97 67.1549 149.036 66.7519 149.169 66.3693C149.295 66.007 149.486 65.6716 149.733 65.3803C149.967 65.1028 150.254 64.8759 150.577 64.7134C150.912 64.5485 151.281 64.4646 151.653 64.4683C152.104 64.4616 152.545 64.5927 152.921 64.8445C153.278 65.0808 153.581 65.393 153.808 65.7594V62.1997H154.799V69.2933C154.799 69.5299 154.903 69.6525 155.115 69.6582V70.5132L154.861 70.5502C154.796 70.5502 154.734 70.5502 154.675 70.5502C154.485 70.5521 154.301 70.4796 154.163 70.3478C154.095 70.2921 154.039 70.2218 154.001 70.142C153.963 70.0621 153.943 69.9747 153.943 69.8861V69.3846C153.717 69.7584 153.4 70.0678 153.023 70.2837C152.647 70.4996 152.222 70.6149 151.788 70.6186" fill="#42873E"/>
<path d="M156.438 64.5652H157.43V70.5074H156.438V64.5652ZM156.438 62.194H157.43V63.448H156.438V62.194Z" fill="#42873E"/>
<path d="M160.801 69.8805C161.139 69.8838 161.475 69.8158 161.786 69.6809C162.061 69.5726 162.301 69.389 162.479 69.1509C162.543 69.0954 162.595 69.0274 162.631 68.9509C162.668 68.8745 162.689 68.7912 162.693 68.7063V67.8285C162.216 67.6387 161.708 67.542 161.195 67.5435C160.769 67.5236 160.346 67.6349 159.984 67.8627C159.841 67.9483 159.723 68.0701 159.641 68.2161C159.559 68.362 159.516 68.527 159.516 68.6949C159.514 68.8559 159.547 69.0154 159.612 69.1623C159.676 69.3077 159.773 69.4363 159.894 69.5384C160.013 69.6485 160.153 69.7337 160.305 69.7892C160.467 69.8518 160.639 69.8827 160.812 69.8805H160.801ZM160.553 70.6357C160.287 70.6381 160.023 70.5888 159.775 70.4903C159.543 70.4026 159.331 70.2689 159.15 70.0971C158.973 69.9319 158.83 69.7322 158.731 69.51C158.627 69.2791 158.575 69.0281 158.578 68.7747C158.576 68.5145 158.638 68.2578 158.759 68.028C158.885 67.8007 159.062 67.6057 159.274 67.458C159.514 67.2889 159.781 67.1618 160.063 67.0818C160.387 66.9878 160.723 66.9417 161.06 66.945C161.351 66.945 161.641 66.9718 161.927 67.0248C162.193 67.0708 162.453 67.1433 162.704 67.2414V66.7626C162.726 66.5509 162.701 66.337 162.63 66.1365C162.56 65.936 162.446 65.7541 162.297 65.604C162.148 65.4539 161.967 65.3396 161.769 65.2693C161.57 65.199 161.359 65.1746 161.15 65.1979C160.471 65.2293 159.817 65.4722 159.28 65.8933L158.953 65.2435C159.621 64.7574 160.418 64.4872 161.24 64.4684C161.901 64.4284 162.55 64.6537 163.048 65.0953C163.272 65.3282 163.445 65.606 163.557 65.9108C163.669 66.2157 163.716 66.5407 163.696 66.8652V69.2934C163.696 69.5299 163.803 69.6525 164.014 69.6582V70.5132L163.755 70.5502C163.684 70.5502 163.614 70.5502 163.538 70.5502C163.452 70.5541 163.366 70.5402 163.286 70.5093C163.206 70.4784 163.132 70.4312 163.071 70.3707C162.956 70.2559 162.882 70.1053 162.862 69.9432L162.84 69.5214C162.583 69.8759 162.239 70.1568 161.843 70.3365C161.439 70.5261 160.998 70.6234 160.553 70.6215" fill="#42873E"/>
</g>
<path d="M49.3336 44.2221H46.4546V41.333H44.808V48.7174H46.4546V45.8081H49.3336V48.7174H50.9903V41.333H49.3336V44.2221Z" fill="#77BC1F"/>
<path d="M58.4959 47.2088C58.0605 47.2195 57.6317 47.1 57.2645 46.8657C56.8974 46.6313 56.6085 46.2928 56.4348 45.8933C56.2611 45.4938 56.2106 45.0516 56.2897 44.6233C56.3688 44.1949 56.5739 43.7999 56.8788 43.4888C57.1836 43.1777 57.5744 42.9647 58.001 42.8769C58.4277 42.7891 58.8708 42.8306 59.2737 42.9962C59.6766 43.1617 60.021 43.4437 60.2628 43.806C60.5045 44.1683 60.6326 44.5946 60.6307 45.0301C60.6389 45.3148 60.5896 45.5981 60.4858 45.8632C60.3819 46.1284 60.2257 46.3698 60.0264 46.5732C59.8271 46.7766 59.5889 46.9377 59.3259 47.0469C59.0629 47.1561 58.7806 47.2111 58.4959 47.2088ZM58.4959 41.2049C57.9893 41.1977 57.4864 41.2919 57.0167 41.4818C56.547 41.6718 56.12 41.9537 55.7608 42.311C55.4016 42.6683 55.1175 43.0938 54.9251 43.5625C54.7326 44.0312 54.6359 44.5336 54.6404 45.0402C54.6404 46.0628 55.0466 47.0435 55.7697 47.7665C56.4927 48.4895 57.4734 48.8957 58.4959 48.8957C59.5185 48.8957 60.4991 48.4895 61.2222 47.7665C61.9452 47.0435 62.3514 46.0628 62.3514 45.0402C62.3542 44.5347 62.256 44.0338 62.0628 43.5666C61.8696 43.0995 61.5852 42.6756 61.2262 42.3197C60.8672 41.9639 60.4408 41.6832 59.972 41.4941C59.5032 41.305 59.0014 41.2112 58.4959 41.2184" fill="#77BC1F"/>
<path d="M68.8233 44.6801H67.6448V42.8517H68.9243C69.0455 42.8429 69.1672 42.86 69.2814 42.9019C69.3955 42.9437 69.4995 43.0093 69.5864 43.0942C69.6733 43.1792 69.7411 43.2817 69.7855 43.3949C69.8298 43.508 69.8496 43.6293 69.8436 43.7507C69.8436 44.2221 69.5641 44.6801 68.8132 44.6801H68.8233ZM71.5407 43.7204C71.5407 42.4543 70.7224 41.333 68.9344 41.333H65.9982V48.7174H67.6448V46.1381H68.4529L69.9042 48.7174H71.8201L70.113 45.9091C70.5469 45.7351 70.9167 45.4317 71.1722 45.0401C71.4276 44.6485 71.5563 44.1877 71.5407 43.7204Z" fill="#77BC1F"/>
<path d="M74.5845 42.9224H76.6755V48.7174H78.3322V42.9224H80.4098V41.333H74.5845V42.9224Z" fill="#77BC1F"/>
<path d="M85.4843 41.333H83.8276V48.7141H85.4843V41.333Z" fill="#77BC1F"/>
<path d="M89.5386 48.7174H91.1885V45.899H94.1955V44.3501H91.1885V42.8921H94.6063V41.333H89.5386V48.7174Z" fill="#77BC1F"/>
<path d="M100.99 44.6801H99.8219V42.8517H101.098C101.219 42.8429 101.341 42.86 101.455 42.9019C101.569 42.9437 101.673 43.0093 101.76 43.0942C101.847 43.1792 101.915 43.2817 101.959 43.3949C102.004 43.508 102.023 43.6293 102.017 43.7507C102.017 44.2221 101.738 44.6801 100.99 44.6801ZM103.718 43.7204C103.718 42.4543 102.896 41.333 101.108 41.333H98.172V48.7174H99.8219V46.1381H100.63L102.078 48.7174H103.997L102.287 45.9091C102.721 45.7356 103.092 45.4324 103.348 45.0408C103.604 44.6491 103.733 44.1881 103.718 43.7204Z" fill="#77BC1F"/>
<path d="M111.688 45.8687C111.688 46.8082 111.14 47.2493 110.399 47.2493C109.658 47.2493 109.102 46.8183 109.102 45.8687V41.333H107.442V45.9327C107.442 47.9901 108.86 48.8386 110.399 48.8386C111.938 48.8386 113.345 47.9901 113.345 45.9327V41.333H111.688V45.8687Z" fill="#77BC1F"/>
<path d="M116.682 42.9224H118.77V48.7174H120.426V42.9224H122.504V41.333H116.682V42.9224Z" fill="#77BC1F"/>
<path d="M127.578 41.333H125.922V48.7141H127.578V41.333Z" fill="#77BC1F"/>
<path d="M118.892 23.6483V25.2679C118.586 27.3657 116.08 28.9416 113.04 28.9416C110.683 28.9416 109.265 27.8877 109.265 26.1165C109.265 24.8336 109.757 23.6483 113.306 23.6483H118.892ZM128.849 32.5513L128.337 29.3255C128.277 29.0238 128.104 28.7564 127.854 28.5771C127.604 28.3977 127.295 28.3198 126.99 28.3591L126.778 28.386C126.021 28.45 125.856 28.3557 125.704 27.0997C125.682 26.876 125.673 26.6511 125.677 26.4263V24.6416C125.68 24.608 125.68 24.5742 125.677 24.5406V17.897C125.63 12.2064 121.727 8.80544 115.239 8.80544C110.861 8.80544 108.167 9.79877 104.992 11.4992C104.713 11.6513 104.504 11.9067 104.411 12.2107C104.318 12.5148 104.347 12.8432 104.494 13.1256L105.962 15.9406C106.037 16.0831 106.139 16.2092 106.264 16.3115C106.388 16.4138 106.532 16.4904 106.686 16.5367C106.84 16.5839 107.002 16.5996 107.162 16.5828C107.322 16.566 107.478 16.5171 107.618 16.439C109.821 15.2201 111.942 14.6005 113.929 14.6005C116.188 14.6005 118.879 15.2739 118.879 18.557V18.6748H112.349C106.288 18.722 102.679 21.6313 102.679 26.4566C102.679 31.1707 106.359 34.4639 111.632 34.4639C115.191 34.4639 117.993 33.3258 119.747 31.1808C120.378 32.2167 121.321 33.0256 122.441 33.4908C124.502 34.3999 125.983 34.3494 127.849 33.9588H127.906L128.007 33.9218C128.289 33.8311 128.528 33.6418 128.681 33.3887C128.833 33.1356 128.89 32.8358 128.839 32.5446" fill="#42873E"/>
<path d="M91.9427 21.419V21.4358C91.8855 27.2174 87.1242 27.6653 85.6695 27.6653C84.2278 27.6348 82.7952 27.429 81.4032 27.0524V21.4392C81.4032 18.6006 83.171 15.7149 86.5517 15.7149C87.2949 15.6806 88.0368 15.8069 88.7267 16.0852C89.4167 16.3636 90.0385 16.7874 90.5499 17.3278C91.0612 17.8682 91.45 18.5125 91.6898 19.2168C91.9296 19.9211 92.0147 20.6688 91.9393 21.4089L91.9427 21.419ZM88.4138 8.84906C85.3126 8.84906 82.9892 9.75822 81.3594 11.6203V1.24244C81.3587 1.05253 81.3136 0.865433 81.2277 0.696052C81.1418 0.526672 81.0175 0.379696 80.8648 0.266853C80.7121 0.154011 80.5351 0.0784173 80.3479 0.0461035C80.1608 0.0137897 79.9687 0.0256486 79.7869 0.0807337L75.3657 1.42763C75.1166 1.50303 74.8985 1.65682 74.7438 1.86612C74.5891 2.07543 74.5061 2.32907 74.5071 2.58934V31.211C74.5061 31.4514 74.5766 31.6868 74.7097 31.887C74.8429 32.0873 75.0325 32.2435 75.2546 32.3356C78.348 33.646 81.6611 34.3601 85.0196 34.4402H85.4675C89.5419 34.4402 92.9125 33.265 95.2325 31.0258C97.5526 28.7866 98.7951 25.5338 98.8624 21.4022C98.9298 17.2706 97.8253 13.9504 95.6602 11.7483C94.7067 10.808 93.5746 10.0683 92.3306 9.57264C91.0867 9.07701 89.756 8.83557 88.4172 8.86253" fill="#42873E"/>
<path d="M57.4386 28.4902C53.6403 28.4902 51.0879 25.756 51.0879 21.685C51.0879 17.614 53.6403 14.8831 57.4386 14.8831C61.1257 14.8831 63.6983 17.6813 63.6983 21.685C63.6983 25.6887 61.1257 28.4902 57.4386 28.4902ZM57.4386 8.84566C49.4885 8.84566 44.1447 13.9706 44.1447 21.5974C44.1447 29.2243 49.4885 34.4368 57.4386 34.4368C61.2772 34.4368 64.5738 33.2111 66.9679 30.8877C69.362 28.5643 70.6416 25.3452 70.6416 21.5974C70.6416 17.8497 69.3721 14.6744 66.9679 12.3644C64.5637 10.0545 61.2772 8.84566 57.4386 8.84566Z" fill="#FF8300"/>
<path d="M54.1386 7.82884C53.1256 8.04662 52.073 7.99201 51.0879 7.67058C50.2399 7.36917 49.5075 6.80987 48.9935 6.07114C48.4547 5.3135 47.9833 4.50873 47.4951 3.71406C47.0344 2.85442 46.4589 2.06146 45.7845 1.35698C45.4915 1.08087 45.1481 0.848526 44.808 0.565677C45.1178 0.481496 45.4208 0.387216 45.7138 0.316504C47.3435 -0.0740975 48.9733 -0.161646 50.5828 0.400685C52.6032 1.10107 53.9501 2.51195 54.7481 4.45822C55.1314 5.34225 55.2976 6.30515 55.233 7.26652C55.233 7.35743 55.2094 7.44834 55.196 7.57967C55.196 7.57967 54.4922 7.7716 54.1386 7.83221" fill="#77BC1F"/>
<path d="M57.4183 7.51572C57.9234 7.51572 58.4285 7.53592 58.91 7.57633C59.1962 5.3068 60.1155 3.51542 61.5769 2.39749C61.6981 2.30632 61.7834 2.1754 61.8179 2.02767C61.8524 1.87993 61.8338 1.72477 61.7654 1.58935L61.1391 0.343465C61.0998 0.268733 61.0461 0.20249 60.9811 0.148508C60.9162 0.0945256 60.8412 0.053868 60.7605 0.0288537C60.6799 0.0038393 60.5951 -0.0050402 60.511 0.00272169C60.4269 0.0104836 60.3451 0.0347323 60.2704 0.0740888C57.9907 1.30987 56.3947 4.07102 55.8929 7.57633C56.3913 7.53592 56.9031 7.51572 57.4217 7.51572" fill="#77BC1F"/>
<defs>
<clipPath id="clip0_1_324">
<rect width="164" height="61.2747" fill="white" transform="translate(0 9.36096)"/>
</clipPath>
</defs>
</svg>
