<svg width="25" height="24" viewBox="0 0 25 24" fill="none" xmlns="http://www.w3.org/2000/svg">
<path d="M24.4679 11.9214C24.4679 18.5054 19.1305 23.8428 12.5465 23.8428C5.96251 23.8428 0.625122 18.5054 0.625122 11.9214C0.625122 5.33738 5.96251 0 12.5465 0C19.1305 0 24.4679 5.33738 24.4679 11.9214Z" fill="#77BC1F"/>
<path d="M12.5648 7.77917C9.28561 7.77917 7.08252 9.96697 7.08252 13.2236C7.08252 16.4801 9.28561 18.7071 12.5648 18.7071C14.1483 18.7071 15.5082 18.1831 16.4956 17.1915C17.4866 16.1973 18.0105 14.8249 18.0105 13.2236C18.0105 11.6222 17.4866 10.2681 16.4944 9.28137C15.507 8.29827 14.1483 7.77917 12.5648 7.77917ZM12.5648 16.168C10.9979 16.168 9.94547 15 9.94547 13.2627C9.94547 11.5255 10.9979 10.3575 12.5648 10.3575C14.1317 10.3575 15.1475 11.5524 15.1475 13.2627C15.1475 14.9731 14.0856 16.168 12.5648 16.168Z" fill="#F6F5F5"/>
<path d="M11.1297 7.23508C10.7369 7.30166 10.3496 7.31132 9.96875 7.17601C9.63815 7.05895 9.37082 6.85491 9.17115 6.57784C8.96602 6.29325 8.7849 5.99255 8.60159 5.694C8.40847 5.38149 8.22407 5.06361 7.9502 4.81016C7.8389 4.70707 7.70797 4.61901 7.57922 4.51376C7.69597 4.48262 7.81272 4.44718 7.92401 4.42033C8.54376 4.27428 9.16352 4.24099 9.77672 4.4504C10.5438 4.71351 11.0555 5.24188 11.3621 5.97107C11.5039 6.30721 11.576 6.65623 11.5465 7.02244C11.5432 7.05681 11.5378 7.09117 11.5312 7.1395C11.5312 7.1395 11.2639 7.21145 11.1297 7.234V7.23508Z" fill="#F6F5F5"/>
<path d="M12.6881 7.25872C12.8988 7.25872 13.1072 7.26662 13.3109 7.28241C13.4306 6.39027 13.8151 5.68648 14.4247 5.24549C14.5301 5.1688 14.5636 5.03458 14.5038 4.92743L14.2427 4.43681C14.2091 4.37591 14.1528 4.33192 14.0834 4.31275C14.0151 4.29358 13.9432 4.30034 13.881 4.33192C12.9276 4.81803 12.2605 5.90303 12.0497 7.28241C12.2593 7.26662 12.4725 7.25872 12.6893 7.25872H12.6881Z" fill="#F6F5F5"/>
</svg>
