<svg width="27" height="21" viewBox="0 0 27 21" fill="none" xmlns="http://www.w3.org/2000/svg">
<path d="M27 10.5003C27 11.3283 26.3365 12.0011 25.5198 12.0011H5.04915L11.3999 18.4398C11.9775 19.0254 11.9775 19.9759 11.3999 20.5615C11.1124 20.8556 10.7336 21 10.3549 21C9.97607 21 9.59728 20.8529 9.30984 20.5615L0.433859 11.5626C0.364012 11.4917 0.302223 11.4155 0.248495 11.3338C0.224318 11.2984 0.208199 11.2575 0.186708 11.2194C0.159843 11.1704 0.13298 11.1268 0.111488 11.075C0.0899963 11.026 0.0792503 10.9743 0.0658169 10.9225C0.0523853 10.8789 0.0362663 10.8381 0.0282078 10.7945C-0.00940323 10.6011 -0.00940323 10.3996 0.0282078 10.2062C0.0362663 10.1626 0.0523853 10.1218 0.0658169 10.0782C0.0792503 10.0264 0.0926838 9.97468 0.111488 9.92565C0.13298 9.8739 0.159843 9.8276 0.186708 9.7813C0.208199 9.74317 0.224318 9.70504 0.248495 9.6669C0.302223 9.58519 0.364012 9.50621 0.433859 9.43812L9.30715 0.439188C9.88473 -0.146396 10.8223 -0.146396 11.3999 0.439188C11.9775 1.02477 11.9775 1.97532 11.3999 2.56091L5.04915 8.99961H25.5198C26.3365 8.99961 27 9.67235 27 10.5003Z" fill="#FF8300"/>
</svg>
