<?xml version="1.0" encoding="utf-8"?>
<!-- Generator: Adobe Illustrator 27.6.1, SVG Export Plug-In . SVG Version: 6.00 Build 0)  -->
<svg version="1.1" id="Camada_1" xmlns="http://www.w3.org/2000/svg" xmlns:xlink="http://www.w3.org/1999/xlink" x="0px" y="0px"
	 viewBox="0 0 47 52" style="enable-background:new 0 0 47 52;" xml:space="preserve">
<style type="text/css">
	.st0{fill:#75B938;}
	.st1{fill:#FFFFFF;}
	.st2{fill:#FFE79D;}
	.st3{fill:#FF8300;}
	.st4{fill:#41873F;}
	.st5{fill:#77BC1F;}
</style>
<path class="st0" d="M-17.2,52h-40.9c-3.3,0-6.1-2.7-6.1-6.1V6.1c0-3.3,2.7-6.1,6.1-6.1h40.9V52z"/>
<g>
	<path class="st1" d="M-34.9,36.3c-0.5-0.7-1-1.5-1.5-2.2c-0.6-0.9-1.1-1.8-1.5-2.8c-0.9-2.2,0.4-4.6,2.4-5.5
		c2.9-1.3,6.2,0.9,6.2,4.1c0,0.7-0.2,1.3-0.5,1.8c-0.6,1.5-1.5,2.8-2.4,4.1c-0.3,0.5-0.7,0.9-1,1.3c-0.2,0.2-0.4,0.4-0.7,0.3
		c-0.2,0-0.5,0-0.7,0c-0.4,0-0.6-0.1-0.7-0.4C-35.3,36.7-35.2,36.5-34.9,36.3L-34.9,36.3z M-33.7,35.9c0.1-0.2,0.2-0.3,0.3-0.4
		c1-1.4,2-2.7,2.6-4.3c0.2-0.4,0.4-0.9,0.4-1.4c0.1-1.4-0.9-2.7-2.3-3.1c-1.4-0.4-2.9,0.1-3.7,1.2c-0.7,1-0.8,2.1-0.3,3.3
		c0.6,1.3,1.4,2.6,2.2,3.8C-34.2,35.3-33.9,35.6-33.7,35.9L-33.7,35.9z"/>
	<path class="st1" d="M-46.4,25.4c0.1,0.2,0.3,0.4,0.3,0.6c0.1,0.3-0.2,0.6-0.5,0.7c-0.3,0-0.7,0-1,0c-0.1,0-0.3-0.1-0.4-0.2
		c-1.3-1.7-2.6-3.5-3.5-5.5c-0.2-0.4-0.3-0.8-0.4-1.2c-0.4-1.9,0.7-3.9,2.5-4.7c3-1.4,6.4,0.9,6.3,4.1c0,0.7-0.3,1.3-0.5,1.9
		c-0.7,1.4-1.5,2.8-2.5,4.1C-46.3,25.2-46.4,25.3-46.4,25.4L-46.4,25.4z M-47.7,25.1c0.1-0.2,0.2-0.3,0.3-0.4c1-1.4,2-2.7,2.6-4.3
		c0.2-0.4,0.4-0.9,0.4-1.4c0-2.4-2.5-4-4.7-3c-1.3,0.6-2.4,2.4-1.6,4.1c0.4,0.8,0.7,1.5,1.2,2.2C-48.9,23.2-48.3,24.1-47.7,25.1
		L-47.7,25.1z"/>
	<path class="st1" d="M-43.9,25.3c0.4,0,0.9,0.1,1.3,0.1c0.4,0,0.5,0.3,0.5,0.6c0,0.3-0.3,0.5-0.6,0.5c-0.7,0-1.4,0-2-0.1
		c-0.3,0-0.6-0.3-0.6-0.6c0-0.3,0.2-0.6,0.6-0.6C-44.4,25.4-44.2,25.4-43.9,25.3C-43.9,25.4-43.9,25.4-43.9,25.3L-43.9,25.3z"/>
	<path class="st1" d="M-47.8,33.6c-0.1,0.6,0,1.2,0.2,1.7c0.1,0.3,0,0.6-0.3,0.7c-0.3,0.1-0.6,0-0.7-0.2c-0.1-0.3-0.3-0.6-0.3-0.9
		C-49,34.4-49,34-49,33.5c0-0.3,0.1-0.5,0.4-0.6C-48.2,32.8-47.8,33.1-47.8,33.6L-47.8,33.6z"/>
	<path class="st1" d="M-40.1,28.7c0,0.1,0,0.3,0,0.4c-0.1,0.3-0.3,0.6-0.7,0.5c-0.3,0-0.5-0.3-0.5-0.7c0.1-0.5,0-1-0.3-1.4
		c-0.2-0.3-0.1-0.7,0.2-0.8c0.3-0.2,0.6-0.1,0.8,0.3C-40.3,27.4-40.1,28-40.1,28.7L-40.1,28.7z"/>
	<path class="st1" d="M-45,31.3c0,0.3-0.2,0.6-0.5,0.6c-0.6,0-1.1,0.1-1.6,0.5c-0.2,0.2-0.6,0.1-0.8-0.1c-0.2-0.2-0.2-0.6,0.1-0.8
		c0.7-0.6,1.5-0.8,2.3-0.7C-45.2,30.7-45,31-45,31.3L-45,31.3z"/>
	<path class="st1" d="M-37.7,37.4c-0.3,0-0.6,0-0.9,0c-0.4,0-0.6-0.2-0.6-0.6c0-0.3,0.3-0.6,0.6-0.6c0.6,0,1.3,0,1.9,0
		c0.4,0,0.6,0.2,0.6,0.6c0,0.3-0.2,0.6-0.6,0.6C-37,37.4-37.4,37.4-37.7,37.4L-37.7,37.4z"/>
	<path class="st1" d="M-45.3,37.5c-0.5-0.1-0.9-0.1-1.4-0.2c-0.4-0.1-0.5-0.4-0.5-0.7c0.1-0.3,0.4-0.5,0.7-0.4
		c0.4,0.1,0.8,0.1,1.2,0.1c0.2,0,0.4,0,0.6,0c0.4,0,0.6,0.2,0.6,0.6c0,0.3-0.3,0.6-0.6,0.6C-44.9,37.4-45.1,37.4-45.3,37.5
		C-45.3,37.4-45.3,37.5-45.3,37.5L-45.3,37.5z"/>
	<path class="st1" d="M-43.3,31.8c-0.1,0-0.2,0-0.3,0c-0.3,0-0.6-0.3-0.6-0.6c0-0.3,0.2-0.6,0.6-0.6c0.2,0,0.3,0,0.5,0
		c0.3-0.1,0.7-0.2,1-0.4c0.4-0.2,0.7-0.2,0.9,0.1c0.2,0.3,0.1,0.6-0.2,0.9C-42,31.7-42.6,31.8-43.3,31.8z"/>
	<path class="st1" d="M-41.6,36.3c0.3,0,0.6,0,0.9,0c0.4,0,0.6,0.3,0.6,0.6c0,0.3-0.3,0.6-0.6,0.6c-0.6,0-1.3,0-1.9,0
		c-0.4,0-0.6-0.3-0.6-0.6c0-0.3,0.3-0.6,0.6-0.6c0,0,0,0,0,0C-42.3,36.3-42,36.3-41.6,36.3L-41.6,36.3z"/>
	<path class="st1" d="M-35.6,29.9c0-1.1,0.9-1.9,1.9-1.9c1.1,0,1.9,0.9,1.9,1.9c0,1.1-0.9,2-2,2C-34.8,31.8-35.6,30.9-35.6,29.9z
		 M-33.7,30.6c0.4,0,0.8-0.3,0.8-0.8c0-0.4-0.4-0.8-0.8-0.8c-0.4,0-0.8,0.4-0.8,0.8C-34.5,30.3-34.1,30.6-33.7,30.6z"/>
	<path class="st1" d="M-47.6,17c1.1,0,1.9,0.9,1.9,1.9c0,1.1-0.9,2-2,2c-1.1,0-1.9-0.9-1.9-1.9C-49.6,17.9-48.7,17-47.6,17z
		 M-46.9,19c0-0.4-0.3-0.8-0.8-0.8c-0.4,0-0.8,0.4-0.8,0.8c0,0.4,0.4,0.8,0.8,0.8C-47.2,19.8-46.9,19.4-46.9,19L-46.9,19z"/>
</g>
<path class="st2" d="M47,52H6.1C2.7,52,0,49.3,0,45.9V6C0,2.7,2.7,0,6.1,0H47V52z"/>
<g>
	<path class="st3" d="M14.8,26.5c-0.7,0-1.3-0.3-1.6-0.9v0.8h-1.5v-6.9h1.8v2.7c0.2-0.3,0.3-0.5,0.6-0.6c0.3-0.1,0.6-0.2,0.9-0.2
		c0.3,0,0.6,0.1,0.8,0.2c0.3,0.1,0.5,0.3,0.7,0.5c0.2,0.2,0.3,0.5,0.4,0.8c0.1,0.3,0.2,0.7,0.2,1c0,0.4-0.1,0.7-0.2,1
		c-0.1,0.3-0.3,0.6-0.5,0.8c-0.2,0.2-0.4,0.4-0.7,0.5C15.4,26.5,15.1,26.5,14.8,26.5z M14.3,25c0.3,0,0.5-0.1,0.7-0.3
		c0.2-0.2,0.3-0.4,0.3-0.7c0-0.2,0-0.3-0.1-0.4c-0.1-0.1-0.1-0.2-0.2-0.3c-0.1-0.1-0.2-0.2-0.3-0.2c-0.1-0.1-0.2-0.1-0.4-0.1
		c-0.2,0-0.4,0.1-0.5,0.2c-0.2,0.1-0.3,0.3-0.4,0.5v0.9C13.7,24.9,13.9,25,14.3,25z"/>
	<path class="st3" d="M19.7,26.5c-0.4,0-0.8-0.1-1.1-0.2c-0.3-0.1-0.6-0.3-0.8-0.6c-0.2-0.2-0.4-0.5-0.5-0.8c-0.1-0.3-0.2-0.6-0.2-1
		c0-0.4,0.1-0.7,0.2-1c0.1-0.3,0.3-0.6,0.5-0.8c0.2-0.2,0.5-0.4,0.8-0.6c0.3-0.1,0.7-0.2,1.1-0.2c0.4,0,0.8,0.1,1.1,0.2
		c0.3,0.1,0.6,0.3,0.8,0.6c0.2,0.2,0.4,0.5,0.5,0.8c0.1,0.3,0.2,0.6,0.2,1c0,0.1,0,0.2,0,0.3c0,0.1,0,0.2,0,0.3h-3.4
		c0,0.3,0.1,0.5,0.3,0.6c0.2,0.1,0.4,0.2,0.6,0.2c0.2,0,0.4,0,0.5-0.1c0.2-0.1,0.3-0.2,0.3-0.4l1.5,0.4c-0.2,0.4-0.5,0.7-0.9,1
		C20.7,26.4,20.3,26.5,19.7,26.5z M20.4,23.5c0-0.2-0.1-0.4-0.3-0.6c-0.2-0.1-0.3-0.2-0.5-0.2s-0.4,0.1-0.5,0.2
		c-0.2,0.1-0.2,0.3-0.3,0.6H20.4z"/>
	<path class="st3" d="M30.3,26.4h-1.8v-2.8c0-0.2-0.1-0.4-0.2-0.5C28.3,23,28.2,23,28.1,23c-0.2,0-0.3,0.1-0.5,0.2
		c-0.2,0.1-0.3,0.3-0.3,0.5v2.8h-1.8v-2.8c0-0.2-0.1-0.4-0.2-0.5C25.3,23,25.2,23,25,23c-0.2,0-0.3,0.1-0.5,0.2
		c-0.2,0.1-0.3,0.3-0.3,0.5v2.8h-1.8v-4.9h1.6v0.7c0.2-0.3,0.4-0.5,0.7-0.6s0.7-0.2,1.1-0.2c0.2,0,0.4,0,0.5,0.1
		c0.2,0,0.3,0.1,0.4,0.2c0.1,0.1,0.2,0.2,0.3,0.3c0.1,0.1,0.1,0.2,0.2,0.3c0.2-0.3,0.4-0.5,0.7-0.6c0.3-0.2,0.6-0.2,1-0.2
		c0.3,0,0.6,0.1,0.8,0.2c0.2,0.1,0.3,0.3,0.4,0.5c0.1,0.2,0.2,0.4,0.2,0.6c0,0.2,0,0.4,0,0.6L30.3,26.4L30.3,26.4z"/>
	<path class="st3" d="M13.4,32.2c-0.3,0-0.6-0.1-0.8-0.2c-0.2-0.1-0.5-0.3-0.7-0.5c-0.2-0.2-0.3-0.5-0.4-0.8c-0.1-0.3-0.2-0.7-0.2-1
		c0-0.4,0.1-0.7,0.2-1c0.1-0.3,0.3-0.6,0.5-0.8c0.2-0.2,0.4-0.4,0.7-0.5c0.3-0.1,0.6-0.2,0.9-0.2c0.4,0,0.7,0.1,0.9,0.2
		c0.2,0.2,0.5,0.4,0.6,0.6v-0.8h1.5V32c0,0.2,0,0.3,0.1,0.3c0.1,0.1,0.2,0.1,0.3,0.1V34c-0.2,0-0.3,0.1-0.5,0.1c-0.2,0-0.3,0-0.5,0
		c-0.2,0-0.3,0-0.5-0.1s-0.3-0.1-0.4-0.2c-0.1-0.1-0.2-0.2-0.3-0.3C15,33.3,15,33.2,15,33v-1.6c-0.1,0.3-0.3,0.5-0.6,0.6
		C14.1,32.1,13.8,32.2,13.4,32.2z M14.1,30.7c0.3,0,0.6-0.2,0.8-0.5v-0.9c-0.1-0.2-0.2-0.4-0.4-0.5c-0.2-0.1-0.3-0.2-0.5-0.2
		c-0.1,0-0.2,0-0.4,0.1c-0.1,0.1-0.2,0.1-0.3,0.2c-0.1,0.1-0.1,0.2-0.2,0.3c0,0.1-0.1,0.3-0.1,0.4c0,0.3,0.1,0.6,0.3,0.7
		C13.6,30.6,13.8,30.7,14.1,30.7z"/>
	<path class="st3" d="M18.7,32.2c-0.5,0-0.9-0.2-1.1-0.5s-0.4-0.7-0.4-1.3v-3.2H19V30c0,0.2,0.1,0.4,0.2,0.5
		c0.1,0.1,0.2,0.2,0.4,0.2c0.1,0,0.3,0,0.4-0.1c0.1-0.1,0.3-0.2,0.4-0.4v-3h1.8v2.9c0,0.2,0,0.3,0.1,0.3c0.1,0.1,0.1,0.1,0.3,0.1
		v1.5c-0.3,0.1-0.5,0.1-0.7,0.1c-0.6,0-0.9-0.2-1-0.7l0-0.2c-0.2,0.3-0.5,0.5-0.8,0.7C19.5,32.1,19.1,32.2,18.7,32.2z"/>
	<path class="st3" d="M25.1,32.2c-0.4,0-0.8-0.1-1.1-0.2c-0.3-0.1-0.6-0.3-0.8-0.6c-0.2-0.2-0.4-0.5-0.5-0.8
		c-0.1-0.3-0.2-0.6-0.2-0.9c0-0.4,0.1-0.7,0.2-1c0.1-0.3,0.3-0.6,0.5-0.8c0.2-0.2,0.5-0.4,0.8-0.6c0.3-0.1,0.7-0.2,1.1-0.2
		c0.4,0,0.8,0.1,1.1,0.2c0.3,0.1,0.6,0.3,0.8,0.6c0.2,0.2,0.4,0.5,0.5,0.8c0.1,0.3,0.2,0.6,0.2,1c0,0.1,0,0.2,0,0.3
		c0,0.1,0,0.2,0,0.2h-3.4c0,0.3,0.1,0.5,0.3,0.6c0.2,0.1,0.4,0.2,0.6,0.2c0.2,0,0.4,0,0.5-0.1c0.2-0.1,0.3-0.2,0.3-0.4l1.5,0.4
		c-0.2,0.4-0.5,0.7-0.9,1C26.2,32.1,25.7,32.2,25.1,32.2z M25.9,29.1c0-0.2-0.1-0.4-0.3-0.6c-0.1-0.1-0.3-0.2-0.5-0.2
		c-0.2,0-0.4,0.1-0.5,0.2c-0.1,0.1-0.2,0.3-0.3,0.6H25.9z"/>
	<path class="st3" d="M31.3,28.7c-0.3,0-0.6,0-0.9,0.1c-0.3,0.1-0.5,0.2-0.6,0.4v2.9H28v-4.9h1.6v0.9c0.2-0.3,0.4-0.6,0.6-0.8
		c0.2-0.2,0.5-0.3,0.8-0.3c0.1,0,0.2,0,0.2,0V28.7z"/>
	<path class="st3" d="M33.8,32.2c-0.4,0-0.8-0.1-1.1-0.2c-0.3-0.1-0.6-0.3-0.8-0.6c-0.2-0.2-0.4-0.5-0.5-0.8
		c-0.1-0.3-0.2-0.6-0.2-0.9c0-0.4,0.1-0.7,0.2-1c0.1-0.3,0.3-0.6,0.5-0.8c0.2-0.2,0.5-0.4,0.8-0.6c0.3-0.1,0.7-0.2,1.1-0.2
		s0.8,0.1,1.1,0.2c0.3,0.1,0.6,0.3,0.8,0.6c0.2,0.2,0.4,0.5,0.5,0.8c0.1,0.3,0.2,0.6,0.2,1c0,0.1,0,0.2,0,0.3c0,0.1,0,0.2,0,0.2H33
		c0,0.3,0.1,0.5,0.3,0.6c0.2,0.1,0.4,0.2,0.6,0.2c0.2,0,0.4,0,0.5-0.1c0.2-0.1,0.3-0.2,0.3-0.4l1.5,0.4c-0.2,0.4-0.5,0.7-0.9,1
		C34.9,32.1,34.4,32.2,33.8,32.2z M34.6,29.1c0-0.2-0.1-0.4-0.3-0.6c-0.1-0.1-0.3-0.2-0.5-0.2c-0.2,0-0.4,0.1-0.5,0.2
		c-0.1,0.1-0.2,0.3-0.3,0.6H34.6z"/>
	<path class="st3" d="M40,28.7c-0.3,0-0.6,0-0.9,0.1c-0.3,0.1-0.5,0.2-0.6,0.4v2.9h-1.8v-4.9h1.6v0.9c0.2-0.3,0.4-0.6,0.6-0.8
		c0.2-0.2,0.5-0.3,0.8-0.3c0.1,0,0.2,0,0.2,0V28.7z"/>
	<path class="st3" d="M14.6,19.7c0-0.2,0-0.3,0.1-0.4c0.1-0.1,0.1-0.2,0.2-0.3c0.1-0.1,0.2-0.2,0.3-0.2c0.1-0.1,0.3-0.1,0.5-0.1
		c0.2,0,0.4,0.1,0.6,0.2c0.2,0.1,0.3,0.2,0.4,0.4l-0.5,0.2c0-0.1-0.1-0.1-0.2-0.2c-0.1,0-0.2-0.1-0.2-0.1c-0.1,0-0.2,0-0.2,0
		c-0.1,0-0.1,0.1-0.2,0.1c-0.1,0.1-0.1,0.1-0.1,0.2c0,0.1,0,0.2,0,0.2c0,0.1,0,0.2,0,0.2c0,0.1,0.1,0.1,0.1,0.2
		c0.1,0.1,0.1,0.1,0.2,0.1c0.1,0,0.1,0,0.2,0c0.1,0,0.2,0,0.3-0.1c0.1,0,0.1-0.1,0.2-0.2l0.5,0.2c-0.1,0.2-0.2,0.3-0.3,0.4
		c-0.2,0.1-0.4,0.2-0.6,0.2c-0.2,0-0.3,0-0.5-0.1c-0.1-0.1-0.2-0.1-0.3-0.2c-0.1-0.1-0.2-0.2-0.2-0.3C14.6,20,14.6,19.9,14.6,19.7z"
		/>
	<path class="st3" d="M16.9,17.9h0.5v2.2c0,0.1,0,0.1,0.1,0.2c0,0,0.1,0.1,0.2,0.1c0,0,0.1,0,0.1,0c0,0,0.1,0,0.1,0l0.1,0.4
		c-0.1,0-0.2,0.1-0.2,0.1c-0.1,0-0.2,0-0.3,0c-0.2,0-0.3,0-0.4-0.1c-0.1-0.1-0.1-0.2-0.1-0.4L16.9,17.9L16.9,17.9z"/>
	<path class="st3" d="M18.1,18.4v-0.5h0.5v0.5H18.1z M18.1,20.8v-2.1h0.5v2.1H18.1z"/>
	<path class="st3" d="M20,20.8c-0.2,0-0.3,0-0.5-0.1c-0.1-0.1-0.2-0.1-0.3-0.2s-0.2-0.2-0.2-0.3c-0.1-0.1-0.1-0.3-0.1-0.4
		c0-0.2,0-0.3,0.1-0.4c0.1-0.1,0.1-0.2,0.2-0.3c0.1-0.1,0.2-0.2,0.3-0.2s0.3-0.1,0.5-0.1c0.2,0,0.3,0,0.5,0.1
		c0.1,0.1,0.2,0.1,0.3,0.2c0.1,0.1,0.2,0.2,0.2,0.3c0.1,0.1,0.1,0.3,0.1,0.4c0,0,0,0.1,0,0.1c0,0,0,0.1,0,0.1h-1.6
		c0,0.1,0,0.2,0.1,0.2c0,0.1,0.1,0.1,0.1,0.2c0.1,0,0.1,0.1,0.2,0.1c0.1,0,0.1,0,0.2,0c0.1,0,0.2,0,0.3-0.1c0.1-0.1,0.2-0.1,0.2-0.2
		l0.5,0.1c-0.1,0.2-0.2,0.3-0.4,0.4C20.5,20.8,20.3,20.8,20,20.8z M20.6,19.5c0-0.2-0.1-0.3-0.2-0.4c-0.1-0.1-0.2-0.1-0.4-0.1
		c-0.1,0-0.1,0-0.2,0c-0.1,0-0.1,0.1-0.2,0.1c0,0-0.1,0.1-0.1,0.2c0,0.1-0.1,0.1-0.1,0.2L20.6,19.5L20.6,19.5z"/>
	<path class="st3" d="M23.3,20.8h-0.5v-1.2c0-0.2,0-0.3-0.1-0.4c0-0.1-0.1-0.1-0.2-0.1c-0.1,0-0.1,0-0.2,0c-0.1,0-0.1,0.1-0.2,0.1
		c-0.1,0-0.1,0.1-0.1,0.1c0,0.1-0.1,0.1-0.1,0.2v1.2h-0.5v-2.1h0.5v0.4c0.1-0.1,0.2-0.2,0.3-0.3c0.2-0.1,0.3-0.1,0.5-0.1
		c0.1,0,0.2,0,0.3,0.1c0.1,0,0.2,0.1,0.2,0.2c0,0.1,0.1,0.2,0.1,0.3c0,0.1,0,0.2,0,0.3L23.3,20.8L23.3,20.8z"/>
	<path class="st3" d="M24.9,20.7c-0.1,0-0.2,0.1-0.3,0.1c-0.1,0-0.2,0-0.3,0c-0.1,0-0.2,0-0.2,0c-0.1,0-0.1-0.1-0.2-0.1
		c-0.1,0-0.1-0.1-0.1-0.2c0-0.1,0-0.2,0-0.2v-1.2h-0.3v-0.4h0.3V18h0.5v0.7h0.4v0.4h-0.4v1c0,0.1,0,0.1,0.1,0.2c0,0,0.1,0,0.1,0
		c0.1,0,0.1,0,0.2,0c0.1,0,0.1,0,0.1,0L24.9,20.7z"/>
	<path class="st3" d="M26.1,20.8c-0.2,0-0.3,0-0.5-0.1c-0.1-0.1-0.2-0.1-0.3-0.2s-0.2-0.2-0.2-0.3C25,20,25,19.9,25,19.8
		c0-0.2,0-0.3,0.1-0.4c0.1-0.1,0.1-0.2,0.2-0.3c0.1-0.1,0.2-0.2,0.3-0.2c0.1-0.1,0.3-0.1,0.5-0.1s0.3,0,0.5,0.1s0.2,0.1,0.3,0.2
		c0.1,0.1,0.2,0.2,0.2,0.3c0.1,0.1,0.1,0.3,0.1,0.4c0,0,0,0.1,0,0.1c0,0,0,0.1,0,0.1h-1.6c0,0.1,0,0.2,0.1,0.2
		c0,0.1,0.1,0.1,0.1,0.2c0.1,0,0.1,0.1,0.2,0.1c0.1,0,0.1,0,0.2,0c0.1,0,0.2,0,0.3-0.1c0.1-0.1,0.2-0.1,0.2-0.2l0.5,0.1
		c-0.1,0.2-0.2,0.3-0.4,0.4C26.5,20.8,26.3,20.8,26.1,20.8z M26.6,19.5c0-0.2-0.1-0.3-0.2-0.4c-0.1-0.1-0.2-0.1-0.4-0.1
		c-0.1,0-0.1,0-0.2,0c-0.1,0-0.1,0.1-0.2,0.1c0,0-0.1,0.1-0.1,0.2c0,0.1-0.1,0.1-0.1,0.2L26.6,19.5L26.6,19.5z"/>
	<path class="st4" d="M7,34.1h1.8l-1.8-1V34.1z"/>
	<path class="st4" d="M7,27.1l2.9,1.6v-2L7,25V27.1z"/>
	<path class="st4" d="M7,23l2.9,1.6v-2L7,21V23z"/>
	<path class="st4" d="M9.9,19.6H8.1l1.8,1V19.6z"/>
	<path class="st4" d="M7,31.1l2.9,1.6v-2L7,29.1V31.1z"/>
	<path class="st5" d="M7,27.1v2l2.9,1.6v-2L7,27.1z"/>
	<path class="st5" d="M7,23v2l2.9,1.6v-2L7,23z"/>
	<path class="st5" d="M8.1,19.6H7V21l2.9,1.6v-2L8.1,19.6z"/>
	<path class="st5" d="M9.9,32.7L7,31.1v2l1.8,1h1.1V32.7z"/>
</g>
</svg>
