<?xml version="1.0" encoding="utf-8"?>
<!-- Generator: Adobe Illustrator 27.6.1, SVG Export Plug-In . SVG Version: 6.00 Build 0)  -->
<svg version="1.1" id="Camada_1" xmlns="http://www.w3.org/2000/svg" xmlns:xlink="http://www.w3.org/1999/xlink" x="0px" y="0px"
	 viewBox="0 0 47 52" style="enable-background:new 0 0 47 52;" xml:space="preserve">
<style type="text/css">
	.st0{fill:#75B938;}
	.st1{fill:#FFFFFF;}
	.st2{fill:#FFE79D;}
	.st3{fill:#FF8300;}
	.st4{fill:#41873F;}
	.st5{fill:#77BC1F;}
</style>
<path class="st0" d="M47,52H6.1C2.7,52,0,49.3,0,45.9V6.1C0,2.7,2.7,0,6.1,0H47V52z"/>
<g>
	<path class="st1" d="M29.3,36.3c-0.5-0.7-1-1.5-1.5-2.2c-0.6-0.9-1.1-1.8-1.5-2.8c-0.9-2.2,0.4-4.6,2.4-5.5
		c2.9-1.3,6.2,0.9,6.2,4.1c0,0.7-0.2,1.3-0.5,1.8c-0.6,1.5-1.5,2.8-2.4,4.1c-0.3,0.5-0.7,0.9-1,1.3c-0.2,0.2-0.4,0.4-0.7,0.3
		c-0.2,0-0.5,0-0.7,0c-0.4,0-0.6-0.1-0.7-0.4C28.8,36.7,28.9,36.5,29.3,36.3L29.3,36.3z M30.5,35.9c0.1-0.2,0.2-0.3,0.3-0.4
		c1-1.4,2-2.7,2.6-4.3c0.2-0.4,0.4-0.9,0.4-1.4c0.1-1.4-0.9-2.7-2.3-3.1c-1.4-0.4-2.9,0.1-3.7,1.2c-0.7,1-0.8,2.1-0.3,3.3
		c0.6,1.3,1.4,2.6,2.2,3.8C30,35.3,30.2,35.6,30.5,35.9L30.5,35.9z"/>
	<path class="st1" d="M17.7,25.4c0.1,0.2,0.3,0.4,0.3,0.6c0.1,0.3-0.2,0.6-0.5,0.7c-0.3,0-0.7,0-1,0c-0.1,0-0.3-0.1-0.4-0.2
		c-1.3-1.7-2.6-3.5-3.5-5.5c-0.2-0.4-0.3-0.8-0.4-1.2c-0.4-1.9,0.7-3.9,2.5-4.7c3-1.4,6.4,0.9,6.3,4.1c0,0.7-0.3,1.3-0.5,1.9
		c-0.7,1.4-1.5,2.8-2.5,4.1C17.9,25.2,17.8,25.3,17.7,25.4L17.7,25.4z M16.5,25.1c0.1-0.2,0.2-0.3,0.3-0.4c1-1.4,2-2.7,2.6-4.3
		c0.2-0.4,0.4-0.9,0.4-1.4c0-2.4-2.5-4-4.7-3c-1.3,0.6-2.4,2.4-1.6,4.1c0.4,0.8,0.7,1.5,1.2,2.2C15.2,23.2,15.9,24.1,16.5,25.1
		L16.5,25.1z"/>
	<path class="st1" d="M20.3,25.3c0.4,0,0.9,0.1,1.3,0.1c0.4,0,0.5,0.3,0.5,0.6c0,0.3-0.3,0.5-0.6,0.5c-0.7,0-1.4,0-2-0.1
		c-0.3,0-0.6-0.3-0.6-0.6c0-0.3,0.2-0.6,0.6-0.6C19.7,25.4,20,25.4,20.3,25.3C20.3,25.4,20.3,25.4,20.3,25.3L20.3,25.3z"/>
	<path class="st1" d="M16.3,33.6c-0.1,0.6,0,1.2,0.2,1.7c0.1,0.3,0,0.6-0.3,0.7c-0.3,0.1-0.6,0-0.7-0.2c-0.1-0.3-0.3-0.6-0.3-0.9
		c-0.1-0.4-0.1-0.9-0.1-1.3c0-0.3,0.1-0.5,0.4-0.6C16,32.8,16.4,33.1,16.3,33.6L16.3,33.6z"/>
	<path class="st1" d="M24.1,28.7c0,0.1,0,0.3,0,0.4c-0.1,0.3-0.3,0.6-0.7,0.5c-0.3,0-0.5-0.3-0.5-0.7c0.1-0.5,0-1-0.3-1.4
		c-0.2-0.3-0.1-0.7,0.2-0.8c0.3-0.2,0.6-0.1,0.8,0.3C23.9,27.4,24.1,28,24.1,28.7L24.1,28.7z"/>
	<path class="st1" d="M19.2,31.3c0,0.3-0.2,0.6-0.5,0.6c-0.6,0-1.1,0.1-1.6,0.5c-0.2,0.2-0.6,0.1-0.8-0.1c-0.2-0.2-0.2-0.6,0.1-0.8
		c0.7-0.6,1.5-0.8,2.3-0.7C19,30.7,19.2,31,19.2,31.3L19.2,31.3z"/>
	<path class="st1" d="M26.5,37.4c-0.3,0-0.6,0-0.9,0c-0.4,0-0.6-0.2-0.6-0.6c0-0.3,0.3-0.6,0.6-0.6c0.6,0,1.3,0,1.9,0
		c0.4,0,0.6,0.2,0.6,0.6c0,0.3-0.2,0.6-0.6,0.6C27.1,37.4,26.8,37.4,26.5,37.4L26.5,37.4z"/>
	<path class="st1" d="M18.8,37.5c-0.5-0.1-0.9-0.1-1.4-0.2c-0.4-0.1-0.5-0.4-0.5-0.7c0.1-0.3,0.4-0.5,0.7-0.4
		c0.4,0.1,0.8,0.1,1.2,0.1c0.2,0,0.4,0,0.6,0c0.4,0,0.6,0.2,0.6,0.6c0,0.3-0.3,0.6-0.6,0.6C19.3,37.4,19,37.4,18.8,37.5
		C18.8,37.4,18.8,37.5,18.8,37.5L18.8,37.5z"/>
	<path class="st1" d="M20.8,31.8c-0.1,0-0.2,0-0.3,0c-0.3,0-0.6-0.3-0.6-0.6c0-0.3,0.2-0.6,0.6-0.6c0.2,0,0.3,0,0.5,0
		c0.3-0.1,0.7-0.2,1-0.4c0.4-0.2,0.7-0.2,0.9,0.1c0.2,0.3,0.1,0.6-0.2,0.9C22.2,31.7,21.6,31.8,20.8,31.8z"/>
	<path class="st1" d="M22.5,36.3c0.3,0,0.6,0,0.9,0c0.4,0,0.6,0.3,0.6,0.6c0,0.3-0.3,0.6-0.6,0.6c-0.6,0-1.3,0-1.9,0
		c-0.4,0-0.6-0.3-0.6-0.6c0-0.3,0.3-0.6,0.6-0.6c0,0,0,0,0,0C21.9,36.3,22.2,36.3,22.5,36.3L22.5,36.3z"/>
	<path class="st1" d="M28.5,29.9c0-1.1,0.9-1.9,1.9-1.9c1.1,0,1.9,0.9,1.9,1.9c0,1.1-0.9,2-2,2C29.4,31.8,28.5,30.9,28.5,29.9z
		 M30.5,30.6c0.4,0,0.8-0.3,0.8-0.8c0-0.4-0.4-0.8-0.8-0.8c-0.4,0-0.8,0.4-0.8,0.8C29.7,30.3,30.1,30.6,30.5,30.6z"/>
	<path class="st1" d="M16.5,17c1.1,0,1.9,0.9,1.9,1.9c0,1.1-0.9,2-2,2c-1.1,0-1.9-0.9-1.9-1.9C14.6,17.9,15.5,17,16.5,17z M17.3,19
		c0-0.4-0.3-0.8-0.8-0.8c-0.4,0-0.8,0.4-0.8,0.8c0,0.4,0.4,0.8,0.8,0.8C16.9,19.8,17.3,19.4,17.3,19L17.3,19z"/>
</g>
<path class="st2" d="M95.8,74.4H54.8c-3.3,0-6.1-2.7-6.1-6.1V28.5c0-3.3,2.7-6.1,6.1-6.1h40.9V74.4z"/>
<g>
	<path class="st3" d="M63.6,49c-0.7,0-1.3-0.3-1.6-0.9v0.8h-1.5v-6.9h1.8v2.7c0.2-0.3,0.3-0.5,0.6-0.6c0.3-0.1,0.6-0.2,0.9-0.2
		c0.3,0,0.6,0.1,0.8,0.2c0.3,0.1,0.5,0.3,0.7,0.5c0.2,0.2,0.3,0.5,0.4,0.8c0.1,0.3,0.2,0.7,0.2,1c0,0.4-0.1,0.7-0.2,1
		c-0.1,0.3-0.3,0.6-0.5,0.8c-0.2,0.2-0.4,0.4-0.7,0.5C64.2,49,63.9,49,63.6,49z M63.1,47.5c0.3,0,0.5-0.1,0.7-0.3
		c0.2-0.2,0.3-0.4,0.3-0.7c0-0.2,0-0.3-0.1-0.4c-0.1-0.1-0.1-0.2-0.2-0.3c-0.1-0.1-0.2-0.2-0.3-0.2c-0.1-0.1-0.2-0.1-0.4-0.1
		c-0.2,0-0.4,0.1-0.5,0.2c-0.2,0.1-0.3,0.3-0.4,0.5V47C62.4,47.3,62.7,47.5,63.1,47.5z"/>
	<path class="st3" d="M68.4,49c-0.4,0-0.8-0.1-1.1-0.2c-0.3-0.1-0.6-0.3-0.8-0.6c-0.2-0.2-0.4-0.5-0.5-0.8c-0.1-0.3-0.2-0.6-0.2-1
		c0-0.4,0.1-0.7,0.2-1c0.1-0.3,0.3-0.6,0.5-0.8c0.2-0.2,0.5-0.4,0.8-0.6c0.3-0.1,0.7-0.2,1.1-0.2s0.8,0.1,1.1,0.2
		c0.3,0.1,0.6,0.3,0.8,0.6c0.2,0.2,0.4,0.5,0.5,0.8c0.1,0.3,0.2,0.6,0.2,1c0,0.1,0,0.2,0,0.3c0,0.1,0,0.2,0,0.3h-3.4
		c0,0.3,0.1,0.5,0.3,0.6c0.2,0.1,0.4,0.2,0.6,0.2c0.2,0,0.4,0,0.5-0.1c0.2-0.1,0.3-0.2,0.3-0.4l1.5,0.4c-0.2,0.4-0.5,0.7-0.9,1
		C69.5,48.9,69,49,68.4,49z M69.2,45.9c0-0.2-0.1-0.4-0.3-0.6c-0.2-0.1-0.3-0.2-0.5-0.2c-0.2,0-0.4,0.1-0.5,0.2
		c-0.2,0.1-0.2,0.3-0.3,0.6H69.2z"/>
	<path class="st3" d="M79.1,48.9h-1.8v-2.8c0-0.2-0.1-0.4-0.2-0.5c-0.1-0.1-0.2-0.2-0.3-0.2c-0.2,0-0.3,0.1-0.5,0.2
		s-0.3,0.3-0.3,0.5v2.8h-1.8v-2.8c0-0.2-0.1-0.4-0.2-0.5c-0.1-0.1-0.2-0.2-0.3-0.2c-0.2,0-0.3,0.1-0.5,0.2c-0.2,0.1-0.3,0.3-0.3,0.5
		v2.8h-1.8V44h1.6v0.7c0.2-0.3,0.4-0.5,0.7-0.6c0.3-0.1,0.7-0.2,1.1-0.2c0.2,0,0.4,0,0.5,0.1c0.2,0,0.3,0.1,0.4,0.2
		c0.1,0.1,0.2,0.2,0.3,0.3c0.1,0.1,0.1,0.2,0.2,0.3c0.2-0.3,0.4-0.5,0.7-0.6s0.6-0.2,1-0.2c0.3,0,0.6,0.1,0.8,0.2
		c0.2,0.1,0.3,0.3,0.4,0.5c0.1,0.2,0.2,0.4,0.2,0.6c0,0.2,0,0.4,0,0.6L79.1,48.9L79.1,48.9z"/>
	<path class="st3" d="M62.2,54.7c-0.3,0-0.6-0.1-0.8-0.2c-0.2-0.1-0.5-0.3-0.7-0.5c-0.2-0.2-0.3-0.5-0.4-0.8c-0.1-0.3-0.2-0.7-0.2-1
		c0-0.4,0.1-0.7,0.2-1c0.1-0.3,0.3-0.6,0.5-0.8c0.2-0.2,0.4-0.4,0.7-0.5c0.3-0.1,0.6-0.2,0.9-0.2c0.4,0,0.7,0.1,0.9,0.2
		c0.2,0.2,0.5,0.4,0.6,0.6v-0.8h1.5v4.8c0,0.2,0,0.3,0.1,0.3c0.1,0.1,0.2,0.1,0.3,0.1v1.5c-0.2,0-0.3,0.1-0.5,0.1
		c-0.2,0-0.3,0-0.5,0c-0.2,0-0.3,0-0.5-0.1c-0.2-0.1-0.3-0.1-0.4-0.2c-0.1-0.1-0.2-0.2-0.3-0.3c-0.1-0.1-0.1-0.3-0.1-0.5v-1.6
		c-0.1,0.3-0.3,0.5-0.6,0.6C62.9,54.6,62.6,54.7,62.2,54.7z M62.9,53.2c0.3,0,0.6-0.2,0.8-0.5v-0.9c-0.1-0.2-0.2-0.4-0.4-0.5
		c-0.2-0.1-0.3-0.2-0.5-0.2c-0.1,0-0.2,0-0.4,0.1c-0.1,0.1-0.2,0.1-0.3,0.2c-0.1,0.1-0.1,0.2-0.2,0.3c0,0.1-0.1,0.3-0.1,0.4
		c0,0.3,0.1,0.6,0.3,0.7C62.4,53.1,62.6,53.2,62.9,53.2z"/>
	<path class="st3" d="M67.5,54.7c-0.5,0-0.9-0.2-1.1-0.5S66,53.5,66,52.9v-3.2h1.8v2.8c0,0.2,0.1,0.4,0.2,0.5
		c0.1,0.1,0.2,0.2,0.4,0.2c0.1,0,0.3,0,0.4-0.1c0.1-0.1,0.3-0.2,0.4-0.4v-3h1.8v2.9c0,0.2,0,0.3,0.1,0.3c0.1,0.1,0.1,0.1,0.3,0.1
		v1.5c-0.3,0.1-0.5,0.1-0.7,0.1c-0.6,0-0.9-0.2-1-0.7l0-0.2c-0.2,0.3-0.5,0.5-0.8,0.7C68.3,54.6,67.9,54.7,67.5,54.7z"/>
	<path class="st3" d="M73.9,54.7c-0.4,0-0.8-0.1-1.1-0.2c-0.3-0.1-0.6-0.3-0.8-0.6c-0.2-0.2-0.4-0.5-0.5-0.8
		c-0.1-0.3-0.2-0.6-0.2-0.9c0-0.4,0.1-0.7,0.2-1c0.1-0.3,0.3-0.6,0.5-0.8c0.2-0.2,0.5-0.4,0.8-0.6c0.3-0.1,0.7-0.2,1.1-0.2
		s0.8,0.1,1.1,0.2c0.3,0.1,0.6,0.3,0.8,0.6c0.2,0.2,0.4,0.5,0.5,0.8c0.1,0.3,0.2,0.6,0.2,1c0,0.1,0,0.2,0,0.3c0,0.1,0,0.2,0,0.2
		h-3.4c0,0.3,0.1,0.5,0.3,0.6c0.2,0.1,0.4,0.2,0.6,0.2c0.2,0,0.4,0,0.5-0.1c0.2-0.1,0.3-0.2,0.3-0.4l1.5,0.4c-0.2,0.4-0.5,0.7-0.9,1
		C75,54.5,74.5,54.7,73.9,54.7z M74.7,51.6c0-0.2-0.1-0.4-0.3-0.6c-0.1-0.1-0.3-0.2-0.5-0.2c-0.2,0-0.4,0.1-0.5,0.2
		c-0.1,0.1-0.2,0.3-0.3,0.6H74.7z"/>
	<path class="st3" d="M80.1,51.2c-0.3,0-0.6,0-0.9,0.1c-0.3,0.1-0.5,0.2-0.6,0.4v2.9h-1.8v-4.9h1.6v0.9c0.2-0.3,0.4-0.6,0.6-0.8
		c0.2-0.2,0.5-0.3,0.8-0.3c0.1,0,0.2,0,0.2,0V51.2z"/>
	<path class="st3" d="M82.6,54.7c-0.4,0-0.8-0.1-1.1-0.2c-0.3-0.1-0.6-0.3-0.8-0.6c-0.2-0.2-0.4-0.5-0.5-0.8
		C80,52.8,80,52.5,80,52.2c0-0.4,0.1-0.7,0.2-1c0.1-0.3,0.3-0.6,0.5-0.8c0.2-0.2,0.5-0.4,0.8-0.6c0.3-0.1,0.7-0.2,1.1-0.2
		c0.4,0,0.8,0.1,1.1,0.2c0.3,0.1,0.6,0.3,0.8,0.6c0.2,0.2,0.4,0.5,0.5,0.8c0.1,0.3,0.2,0.6,0.2,1c0,0.1,0,0.2,0,0.3
		c0,0.1,0,0.2,0,0.2h-3.4c0,0.3,0.1,0.5,0.3,0.6c0.2,0.1,0.4,0.2,0.6,0.2c0.2,0,0.4,0,0.5-0.1c0.2-0.1,0.3-0.2,0.3-0.4l1.5,0.4
		c-0.2,0.4-0.5,0.7-0.9,1C83.7,54.5,83.2,54.7,82.6,54.7z M83.4,51.6c0-0.2-0.1-0.4-0.3-0.6c-0.1-0.1-0.3-0.2-0.5-0.2
		c-0.2,0-0.4,0.1-0.5,0.2c-0.1,0.1-0.2,0.3-0.3,0.6H83.4z"/>
	<path class="st3" d="M88.8,51.2c-0.3,0-0.6,0-0.9,0.1c-0.3,0.1-0.5,0.2-0.6,0.4v2.9h-1.8v-4.9h1.6v0.9c0.2-0.3,0.4-0.6,0.6-0.8
		c0.2-0.2,0.5-0.3,0.8-0.3c0.1,0,0.2,0,0.2,0V51.2z"/>
	<path class="st3" d="M63.4,42.2c0-0.2,0-0.3,0.1-0.4c0.1-0.1,0.1-0.2,0.2-0.3c0.1-0.1,0.2-0.2,0.3-0.2c0.1-0.1,0.3-0.1,0.5-0.1
		c0.2,0,0.4,0.1,0.6,0.2c0.2,0.1,0.3,0.2,0.4,0.4l-0.5,0.2c0-0.1-0.1-0.1-0.2-0.2c-0.1,0-0.2-0.1-0.2-0.1c-0.1,0-0.2,0-0.2,0
		c-0.1,0-0.1,0.1-0.2,0.1C64,41.8,64,41.9,64,41.9c0,0.1,0,0.2,0,0.2s0,0.2,0,0.2c0,0.1,0.1,0.1,0.1,0.2c0.1,0.1,0.1,0.1,0.2,0.1
		c0.1,0,0.1,0,0.2,0c0.1,0,0.2,0,0.3-0.1c0.1,0,0.1-0.1,0.2-0.2l0.5,0.2c-0.1,0.2-0.2,0.3-0.3,0.4c-0.2,0.1-0.4,0.2-0.6,0.2
		c-0.2,0-0.3,0-0.5-0.1c-0.1-0.1-0.2-0.1-0.3-0.2c-0.1-0.1-0.2-0.2-0.2-0.3C63.4,42.5,63.4,42.3,63.4,42.2z"/>
	<path class="st3" d="M65.7,40.3h0.5v2.2c0,0.1,0,0.1,0.1,0.2c0,0,0.1,0.1,0.2,0.1c0,0,0.1,0,0.1,0c0,0,0.1,0,0.1,0l0.1,0.4
		c-0.1,0-0.2,0.1-0.2,0.1c-0.1,0-0.2,0-0.3,0c-0.2,0-0.3,0-0.4-0.1c-0.1-0.1-0.1-0.2-0.1-0.4L65.7,40.3L65.7,40.3z"/>
	<path class="st3" d="M66.9,40.9v-0.5h0.5v0.5H66.9z M66.9,43.2v-2.1h0.5v2.1H66.9z"/>
	<path class="st3" d="M68.8,43.3c-0.2,0-0.3,0-0.5-0.1c-0.1-0.1-0.2-0.1-0.3-0.2s-0.2-0.2-0.2-0.3s-0.1-0.3-0.1-0.4
		c0-0.2,0-0.3,0.1-0.4c0.1-0.1,0.1-0.2,0.2-0.3c0.1-0.1,0.2-0.2,0.3-0.2c0.1-0.1,0.3-0.1,0.5-0.1c0.2,0,0.3,0,0.5,0.1
		c0.1,0.1,0.2,0.1,0.3,0.2c0.1,0.1,0.2,0.2,0.2,0.3c0.1,0.1,0.1,0.3,0.1,0.4c0,0,0,0.1,0,0.1c0,0,0,0.1,0,0.1h-1.6
		c0,0.1,0,0.2,0.1,0.2c0,0.1,0.1,0.1,0.1,0.2c0.1,0,0.1,0.1,0.2,0.1c0.1,0,0.1,0,0.2,0c0.1,0,0.2,0,0.3-0.1c0.1-0.1,0.2-0.1,0.2-0.2
		l0.5,0.1c-0.1,0.2-0.2,0.3-0.4,0.4C69.3,43.2,69,43.3,68.8,43.3z M69.4,42c0-0.2-0.1-0.3-0.2-0.4s-0.2-0.1-0.4-0.1
		c-0.1,0-0.1,0-0.2,0s-0.1,0.1-0.2,0.1c0,0-0.1,0.1-0.1,0.2c0,0.1-0.1,0.1-0.1,0.2L69.4,42L69.4,42z"/>
	<path class="st3" d="M72.1,43.2h-0.5v-1.2c0-0.2,0-0.3-0.1-0.4c0-0.1-0.1-0.1-0.2-0.1c-0.1,0-0.1,0-0.2,0c-0.1,0-0.1,0.1-0.2,0.1
		c-0.1,0-0.1,0.1-0.1,0.1c0,0.1-0.1,0.1-0.1,0.2v1.2h-0.5v-2.1h0.5v0.4c0.1-0.1,0.2-0.2,0.3-0.3c0.2-0.1,0.3-0.1,0.5-0.1
		c0.1,0,0.2,0,0.3,0.1c0.1,0,0.2,0.1,0.2,0.2c0,0.1,0.1,0.2,0.1,0.3c0,0.1,0,0.2,0,0.3L72.1,43.2L72.1,43.2z"/>
	<path class="st3" d="M73.7,43.1c-0.1,0-0.2,0.1-0.3,0.1c-0.1,0-0.2,0-0.3,0c-0.1,0-0.2,0-0.2,0c-0.1,0-0.1-0.1-0.2-0.1
		c-0.1,0-0.1-0.1-0.1-0.2c0-0.1,0-0.2,0-0.2v-1.2h-0.3v-0.4h0.3v-0.7h0.5v0.7h0.4v0.4h-0.4v1c0,0.1,0,0.1,0.1,0.2c0,0,0.1,0,0.1,0
		c0.1,0,0.1,0,0.2,0c0.1,0,0.1,0,0.1,0L73.7,43.1z"/>
	<path class="st3" d="M74.8,43.3c-0.2,0-0.3,0-0.5-0.1c-0.1-0.1-0.2-0.1-0.3-0.2s-0.2-0.2-0.2-0.3c-0.1-0.1-0.1-0.3-0.1-0.4
		c0-0.2,0-0.3,0.1-0.4c0.1-0.1,0.1-0.2,0.2-0.3c0.1-0.1,0.2-0.2,0.3-0.2c0.1-0.1,0.3-0.1,0.5-0.1s0.3,0,0.5,0.1
		c0.1,0.1,0.2,0.1,0.3,0.2c0.1,0.1,0.2,0.2,0.2,0.3c0.1,0.1,0.1,0.3,0.1,0.4c0,0,0,0.1,0,0.1c0,0,0,0.1,0,0.1h-1.6
		c0,0.1,0,0.2,0.1,0.2c0,0.1,0.1,0.1,0.1,0.2c0.1,0,0.1,0.1,0.2,0.1c0.1,0,0.1,0,0.2,0c0.1,0,0.2,0,0.3-0.1c0.1-0.1,0.2-0.1,0.2-0.2
		l0.5,0.1c-0.1,0.2-0.2,0.3-0.4,0.4C75.3,43.2,75.1,43.3,74.8,43.3z M75.4,42c0-0.2-0.1-0.3-0.2-0.4c-0.1-0.1-0.2-0.1-0.4-0.1
		c-0.1,0-0.1,0-0.2,0c-0.1,0-0.1,0.1-0.2,0.1c0,0-0.1,0.1-0.1,0.2c0,0.1-0.1,0.1-0.1,0.2L75.4,42L75.4,42z"/>
	<path class="st4" d="M55.8,56.6h1.8l-1.8-1V56.6z"/>
	<path class="st4" d="M55.8,49.5l2.9,1.6v-2l-2.9-1.6V49.5z"/>
	<path class="st4" d="M55.8,45.5l2.9,1.6v-2l-2.9-1.6V45.5z"/>
	<path class="st4" d="M58.7,42.1h-1.8l1.8,1V42.1z"/>
	<path class="st4" d="M55.8,53.6l2.9,1.6v-2l-2.9-1.6V53.6z"/>
	<path class="st5" d="M55.8,49.5v2l2.9,1.6v-2L55.8,49.5z"/>
	<path class="st5" d="M55.8,45.5v2l2.9,1.6v-2L55.8,45.5z"/>
	<path class="st5" d="M56.9,42.1h-1.1v1.4l2.9,1.6v-2L56.9,42.1z"/>
	<path class="st5" d="M58.7,55.1l-2.9-1.6v2l1.8,1h1.1V55.1z"/>
</g>
</svg>
