<svg width="15" height="18" viewBox="0 0 15 18" fill="none" xmlns="http://www.w3.org/2000/svg">
<path d="M7.55888 18C6.83675 18 6.11552 17.7234 5.55255 17.1712C3.58441 15.2381 0.282959 11.4122 0.282959 7.49625C0.282959 3.36281 3.54712 0 7.55888 0C11.5706 0 14.8348 3.36281 14.8348 7.49625C14.8348 11.4113 11.5334 15.2381 9.56522 17.1712C9.00315 17.7234 8.28102 18 7.55888 18ZM7.55888 1.5C4.34929 1.5 1.73814 4.18969 1.73814 7.49625C1.73814 10.8028 4.75674 14.3175 6.55663 16.0847C7.11869 16.6369 7.99908 16.6369 8.56114 16.0847C10.361 14.3175 13.3796 10.8525 13.3796 7.49625C13.3796 4.14 10.7685 1.5 7.55888 1.5Z" fill="#FF8300"/>
<path d="M7.55888 11.2453C5.55255 11.2453 3.92092 9.56344 3.92092 7.49532C3.92092 5.42719 5.55255 3.74532 7.55888 3.74532C9.56522 3.74532 11.1968 5.42719 11.1968 7.49532C11.1968 9.56344 9.56522 11.2453 7.55888 11.2453ZM7.55888 5.24532C6.35563 5.24532 5.37611 6.255 5.37611 7.49532C5.37611 8.73563 6.35563 9.74532 7.55888 9.74532C8.76214 9.74532 9.74166 8.73563 9.74166 7.49532C9.74166 6.255 8.76214 5.24532 7.55888 5.24532Z" fill="#FF8300"/>
</svg>
