<svg width="13" height="12" viewBox="0 0 13 12" fill="none" xmlns="http://www.w3.org/2000/svg">
<path d="M6.06704 11.2585C6.25799 11.1539 6.57054 11.1539 6.76163 11.2585L7.80996 11.8328C8.0009 11.9374 8.24086 11.8693 8.34301 11.6814L8.90404 10.6499C9.00619 10.462 9.26916 10.2985 9.48823 10.2866L10.6911 10.2213C10.9102 10.2093 11.074 10.0267 11.055 9.81498L10.9506 8.65375C10.9315 8.4422 11.0614 8.16715 11.2391 8.04248L12.2146 7.35836C12.3923 7.23369 12.4278 6.99424 12.2937 6.82626L11.5571 5.90393C11.4228 5.73596 11.3783 5.43658 11.4582 5.23878L11.8965 4.15301C11.9763 3.95521 11.8725 3.73515 11.6656 3.66408L10.5305 3.27357C10.3236 3.20237 10.119 2.97391 10.0757 2.7658L9.83773 1.62313C9.79439 1.41502 9.58399 1.28416 9.37032 1.33255L8.19724 1.5977C7.98357 1.64595 7.68366 1.56086 7.53079 1.40842L6.69215 0.571727C6.53929 0.419288 6.28924 0.419288 6.13652 0.571727L5.29774 1.40842C5.14501 1.56086 4.8451 1.64609 4.63143 1.5977L3.45835 1.33255C3.24468 1.2843 3.03428 1.41502 2.99094 1.62313L2.75298 2.7658C2.70965 2.97391 2.50492 3.2025 2.29821 3.27357L1.16307 3.66408C0.956217 3.73528 0.852364 3.95521 0.932208 4.15301L1.37049 5.23878C1.45034 5.43658 1.40587 5.73582 1.27161 5.90393L0.53498 6.8264C0.400724 6.99437 0.436383 7.23382 0.614113 7.3585L1.58957 8.04262C1.7673 8.16729 1.89701 8.44234 1.87811 8.65388L1.77369 9.81512C1.75465 10.0267 1.91846 10.2095 2.13753 10.2214L3.34044 10.2867C3.55951 10.2985 3.82248 10.4621 3.92477 10.65L4.48581 11.6815C4.58795 11.8694 4.82791 11.9376 5.01885 11.833L6.06719 11.2587L6.06704 11.2585Z" fill="#0A9AEA"/>
<path d="M8.7502 4.53296C8.57008 4.38387 8.2957 4.40061 8.13729 4.57013L5.51563 7.37722L4.19429 5.9624C4.03588 5.79288 3.7615 5.77627 3.58139 5.92523C3.40127 6.07432 3.38362 6.33255 3.54189 6.50207L5.18943 8.26607C5.27528 8.35795 5.39518 8.40501 5.51577 8.40501C5.61759 8.40501 5.71984 8.37153 5.80233 8.30324C5.81592 8.29204 5.82839 8.28018 5.84015 8.26778C5.84071 8.26726 5.84127 8.26673 5.84183 8.2662L8.7897 5.10993C8.94811 4.94041 8.93032 4.68218 8.7502 4.53309V4.53296Z" fill="white"/>
</svg>
