<svg width="15" height="17" viewBox="0 0 15 17" fill="none" xmlns="http://www.w3.org/2000/svg">
<path d="M12.2786 16.5781H9.63286C9.26741 16.5781 8.97141 16.2661 8.97141 15.8809V11.6979C8.97141 11.3267 8.83333 10.9773 8.58281 10.7132C8.31079 10.4265 7.93459 10.2783 7.55012 10.308C6.87462 10.3594 6.32479 11.0356 6.32479 11.8165V15.8818C6.32479 16.267 6.02879 16.5789 5.66334 16.5789H3.01838C1.55989 16.5789 0.372589 15.3275 0.372589 13.7903V6.14853C0.372589 5.47403 0.68595 4.83525 1.21097 4.43874L6.89281 0.251414C7.34425 -0.0840947 7.95361 -0.0840947 8.40753 0.253157L14.0803 4.43439C14.6111 4.83613 14.9244 5.4749 14.9244 6.1494V13.7903C14.9244 15.3275 13.7371 16.5789 12.2786 16.5789V16.5781ZM10.2943 15.1838H12.2786C13.0079 15.1838 13.6015 14.558 13.6015 13.7894V6.14853C13.6015 5.92283 13.4949 5.70758 13.3155 5.57163L7.64851 1.39563L1.97495 5.57686C1.80214 5.70758 1.69548 5.92283 1.69548 6.14853V13.7894C1.69548 14.558 2.28913 15.1838 3.01838 15.1838H5.00272V11.8156C5.00272 10.294 6.08006 9.02084 7.45587 8.91627C8.22315 8.85788 8.97472 9.1533 9.51876 9.72672C10.019 10.2539 10.2943 10.9537 10.2943 11.6979V15.1838Z" fill="#FF8300"/>
</svg>
