<svg width="19" height="25" viewBox="0 0 19 25" fill="none" xmlns="http://www.w3.org/2000/svg">
<path d="M9.25885 20.8154C6.61346 20.8154 4.8358 18.911 4.8358 16.0757C4.8358 13.2404 6.61346 11.3384 9.25885 11.3384C11.8268 11.3384 13.6186 13.2873 13.6186 16.0757C13.6186 18.8641 11.8268 20.8154 9.25885 20.8154ZM9.25885 7.13345C3.72183 7.13345 0 10.7029 0 16.0147C0 21.3266 3.72183 24.957 9.25885 24.957C11.9324 24.957 14.2283 24.1033 15.8958 22.4851C17.5632 20.8669 18.4544 18.6249 18.4544 16.0147C18.4544 13.4045 17.5702 11.193 15.8958 9.58419C14.2213 7.97538 11.9324 7.13345 9.25885 7.13345Z" fill="#FF8300"/>
<path d="M6.96055 6.42528C6.25501 6.57696 5.52187 6.53893 4.8358 6.31506C4.24519 6.10514 3.7351 5.7156 3.37709 5.20109C3.00186 4.67342 2.67353 4.11291 2.33348 3.55945C2.01265 2.96073 1.61185 2.40845 1.14212 1.91781C0.938083 1.7255 0.698871 1.56368 0.462006 1.36668C0.677764 1.30805 0.888832 1.24239 1.09286 1.19314C2.22794 0.921099 3.36302 0.860124 4.48402 1.25177C5.89114 1.73957 6.82922 2.72221 7.38504 4.07773C7.65198 4.69344 7.76777 5.36407 7.72274 6.03364C7.72274 6.09696 7.70633 6.16028 7.69695 6.25174C7.69695 6.25174 7.2068 6.38542 6.96055 6.42763" fill="#77BC1F"/>
<path d="M9.24481 6.20721C9.59659 6.20721 9.94837 6.22128 10.2837 6.24942C10.4831 4.66876 11.1233 3.42111 12.1411 2.6425C12.2256 2.579 12.285 2.48783 12.309 2.38493C12.333 2.28204 12.3201 2.17398 12.2725 2.07966L11.8363 1.21193C11.8088 1.15988 11.7715 1.11375 11.7262 1.07615C11.681 1.03855 11.6288 1.01023 11.5726 0.992813C11.5164 0.975391 11.4573 0.969207 11.3988 0.974613C11.3402 0.980019 11.2832 0.996907 11.2312 1.02432C9.64349 1.88501 8.53187 3.80807 8.18243 6.24942C8.52952 6.22128 8.88599 6.20721 9.24715 6.20721" fill="#77BC1F"/>
</svg>
