<svg width="16" height="15" viewBox="0 0 16 15" fill="none" xmlns="http://www.w3.org/2000/svg">
<path d="M8.161 0C6.15175 0 5.90135 0.00970203 5.11502 0.0429661C4.32546 0.0817743 3.79139 0.204205 3.32015 0.387157C2.82694 0.573353 2.38028 0.864874 2.0113 1.2414C1.63372 1.60952 1.34204 2.05643 1.15705 2.55025C0.974102 3.02149 0.851672 3.55556 0.812864 4.34512C0.777289 5.13191 0.769897 5.38186 0.769897 7.3911C0.769897 9.40034 0.779599 9.65075 0.812864 10.4371C0.851672 11.2243 0.974102 11.7607 1.15705 12.232C1.34325 12.7252 1.63477 13.1718 2.0113 13.5408C2.37942 13.9184 2.82633 14.2101 3.32015 14.395C3.79139 14.5757 4.32777 14.7004 5.11502 14.7392C5.90181 14.7748 6.15175 14.7822 8.161 14.7822C10.1702 14.7822 10.4206 14.7725 11.207 14.7392C11.9942 14.7004 12.5306 14.5752 13.0019 14.395C13.4951 14.2088 13.9417 13.9173 14.3107 13.5408C14.6888 13.1731 14.9805 12.7261 15.1649 12.232C15.3456 11.7607 15.4703 11.2243 15.5091 10.4371C15.5447 9.65029 15.5521 9.40034 15.5521 7.3911C15.5521 5.38186 15.5424 5.13145 15.5091 4.34512C15.4703 3.55787 15.3451 3.01872 15.1649 2.55025C14.9787 2.05704 14.6872 1.61038 14.3107 1.2414C13.943 0.863337 13.496 0.571579 13.0019 0.387157C12.5306 0.204205 11.9942 0.0817743 11.207 0.0429661C10.4202 0.00739203 10.1702 0 8.161 0ZM8.161 1.33056C10.1342 1.33056 10.3698 1.34027 11.1497 1.37353C11.869 1.40726 12.2608 1.52738 12.5209 1.62902C12.8425 1.74772 13.1335 1.93664 13.3728 2.18203C13.6178 2.42035 13.806 2.71072 13.9235 3.03165C14.0252 3.29176 14.1453 3.68354 14.179 4.40287C14.2123 5.18273 14.222 5.41882 14.222 7.39156C14.222 9.36431 14.2123 9.60039 14.1763 10.3803C14.1374 11.0996 14.0173 11.4914 13.9162 11.7515C13.7762 12.0984 13.62 12.341 13.3622 12.6034C13.1221 12.8473 12.8312 13.0353 12.5103 13.1541C12.2534 13.2557 11.8561 13.3759 11.134 13.4096C10.35 13.4429 10.119 13.4526 8.14067 13.4526C6.16238 13.4526 5.93184 13.4429 5.1469 13.4068C4.42756 13.368 4.0307 13.2479 3.7706 13.1467C3.41948 13.0067 3.17877 12.8506 2.92098 12.5928C2.66087 12.3327 2.49547 12.085 2.36796 11.7408C2.26447 11.484 2.1462 11.0867 2.10785 10.3645C2.08152 9.58977 2.06905 9.34953 2.06905 7.38047C2.06905 5.41235 2.08152 5.17165 2.10785 4.38717C2.1462 3.66506 2.26447 3.26866 2.36796 3.01086C2.49547 2.65928 2.66133 2.41904 2.92098 2.15893C3.17831 1.9016 3.41948 1.73528 3.7706 1.60499C4.0307 1.50381 4.41786 1.38369 5.13997 1.34766C5.92399 1.31948 6.15499 1.30931 8.13051 1.30931L8.161 1.33056ZM8.161 3.59761C7.66266 3.59742 7.16916 3.69544 6.70872 3.88607C6.24828 4.07669 5.82991 4.35618 5.47753 4.70856C5.12515 5.06094 4.84566 5.47931 4.65504 5.93975C4.46442 6.40019 4.3664 6.89368 4.36658 7.39202C4.3664 7.89037 4.46442 8.38386 4.65504 8.8443C4.84566 9.30474 5.12515 9.72311 5.47753 10.0755C5.82991 10.4279 6.24828 10.7074 6.70872 10.898C7.16916 11.0886 7.66266 11.1866 8.161 11.1864C8.65934 11.1866 9.15283 11.0886 9.61327 10.898C10.0737 10.7074 10.4921 10.4279 10.8445 10.0755C11.1968 9.72311 11.4763 9.30474 11.667 8.8443C11.8576 8.38386 11.9556 7.89037 11.9554 7.39202C11.9556 6.89368 11.8576 6.40019 11.667 5.93975C11.4763 5.47931 11.1968 5.06094 10.8445 4.70856C10.4921 4.35618 10.0737 4.07669 9.61327 3.88607C9.15283 3.69544 8.65934 3.59742 8.161 3.59761ZM8.161 9.85588C6.79902 9.85588 5.69714 8.75401 5.69714 7.39202C5.69714 6.03004 6.79902 4.92817 8.161 4.92817C9.52298 4.92817 10.6249 6.03004 10.6249 7.39202C10.6249 8.75401 9.52298 9.85588 8.161 9.85588ZM12.9954 3.44607C12.9951 3.68154 12.9014 3.90727 12.7348 4.07369C12.5683 4.2401 12.3424 4.33357 12.107 4.33357C11.9905 4.33357 11.8752 4.31064 11.7677 4.26609C11.6601 4.22153 11.5624 4.15623 11.48 4.0739C11.3977 3.99157 11.3324 3.89384 11.2879 3.78627C11.2433 3.67871 11.2204 3.56342 11.2204 3.44699C11.2204 3.33057 11.2433 3.21528 11.2879 3.10771C11.3324 3.00015 11.3977 2.90241 11.48 2.82009C11.5624 2.73776 11.6601 2.67245 11.7677 2.6279C11.8752 2.58334 11.9905 2.56041 12.107 2.56041C12.5953 2.56041 12.9954 2.95773 12.9954 3.44607Z" fill="#42873E"/>
</svg>
