<svg width="59" height="36" viewBox="0 0 59 36" fill="none" xmlns="http://www.w3.org/2000/svg">
<path d="M3.61395 31.7723H1.60881V29.7601H0.462006V34.9031H1.60881V32.8768H3.61395V34.9031H4.76779V29.7601H3.61395V31.7723Z" fill="#77BC1F"/>
<path d="M9.99523 33.8524C9.69195 33.8598 9.39334 33.7766 9.13762 33.6134C8.88189 33.4502 8.68068 33.2144 8.55973 32.9362C8.43878 32.658 8.4036 32.35 8.45868 32.0516C8.51377 31.7533 8.65662 31.4782 8.86894 31.2615C9.08127 31.0448 9.35342 30.8965 9.65057 30.8353C9.94772 30.7742 10.2564 30.8031 10.537 30.9184C10.8176 31.0337 11.0574 31.2301 11.2258 31.4824C11.3942 31.7348 11.4834 32.0316 11.4821 32.335C11.4878 32.5332 11.4534 32.7306 11.3811 32.9152C11.3088 33.0999 11.2 33.2681 11.0612 33.4097C10.9224 33.5514 10.7564 33.6636 10.5733 33.7396C10.3901 33.8157 10.1935 33.854 9.99523 33.8524ZM9.99523 29.6709C9.6424 29.6658 9.29213 29.7314 8.96499 29.8637C8.63786 29.996 8.34047 30.1923 8.0903 30.4412C7.84013 30.69 7.64223 30.9864 7.50823 31.3128C7.37422 31.6393 7.30682 31.9892 7.30998 32.342C7.30998 33.0542 7.59289 33.7372 8.09647 34.2408C8.60006 34.7444 9.28306 35.0273 9.99523 35.0273C10.7074 35.0273 11.3904 34.7444 11.894 34.2408C12.3976 33.7372 12.6805 33.0542 12.6805 32.342C12.6824 31.99 12.6141 31.6411 12.4795 31.3157C12.3449 30.9904 12.1468 30.6951 11.8968 30.4473C11.6468 30.1994 11.3498 30.0039 11.0233 29.8722C10.6968 29.7405 10.3473 29.6752 9.99523 29.6802" fill="#77BC1F"/>
<path d="M17.188 32.0912H16.3671V30.8178H17.2583C17.3428 30.8117 17.4275 30.8236 17.507 30.8527C17.5865 30.8818 17.6589 30.9275 17.7194 30.9867C17.7799 31.0459 17.8272 31.1173 17.8581 31.1961C17.889 31.2749 17.9028 31.3594 17.8986 31.4439C17.8986 31.7722 17.7039 32.0912 17.1809 32.0912H17.188ZM19.0805 31.4228C19.0805 30.541 18.5107 29.7601 17.2654 29.7601H15.2203V34.9031H16.3671V33.1067H16.93L17.9408 34.9031H19.2752L18.0862 32.9472C18.3884 32.826 18.646 32.6147 18.8239 32.3419C19.0018 32.0692 19.0914 31.7483 19.0805 31.4228Z" fill="#77BC1F"/>
<path d="M21.2006 30.867H22.657V34.9031H23.8108V30.867H25.2578V29.7601H21.2006V30.867Z" fill="#77BC1F"/>
<path d="M28.792 29.7601H27.6382V34.9008H28.792V29.7601Z" fill="#77BC1F"/>
<path d="M31.6157 34.9031H32.7648V32.9402H34.8591V31.8614H32.7648V30.8459H35.1452V29.7601H31.6157V34.9031Z" fill="#77BC1F"/>
<path d="M39.5917 32.0912H38.7779V30.8178H39.6667C39.7511 30.8117 39.8359 30.8236 39.9154 30.8527C39.9949 30.8818 40.0673 30.9275 40.1278 30.9867C40.1883 31.0459 40.2356 31.1173 40.2665 31.1961C40.2973 31.2749 40.3111 31.3594 40.3069 31.4439C40.3069 31.7722 40.1123 32.0912 39.5917 32.0912ZM41.4913 31.4228C41.4913 30.541 40.919 29.7601 39.6737 29.7601H37.6287V34.9031H38.7779V33.1067H39.3407L40.3492 34.9031H41.6859L40.4946 32.9472C40.7972 32.8264 41.0553 32.6152 41.2337 32.3424C41.412 32.0696 41.502 31.7485 41.4913 31.4228Z" fill="#77BC1F"/>
<path d="M47.0424 32.9191C47.0424 33.5734 46.6601 33.8806 46.1442 33.8806C45.6282 33.8806 45.2413 33.5804 45.2413 32.9191V29.7601H44.0851V32.9636C44.0851 34.3965 45.0724 34.9875 46.1442 34.9875C47.2159 34.9875 48.1962 34.3965 48.1962 32.9636V29.7601H47.0424V32.9191Z" fill="#77BC1F"/>
<path d="M50.5203 30.867H51.9743V34.9031H53.1282V30.867H54.5751V29.7601H50.5203V30.867Z" fill="#77BC1F"/>
<path d="M58.1094 29.7601H56.9555V34.9008H58.1094V29.7601Z" fill="#77BC1F"/>
<path d="M52.0596 17.4431V18.5712C51.8462 20.0322 50.1013 21.1298 47.9836 21.1298C46.342 21.1298 45.3547 20.3957 45.3547 19.1621C45.3547 18.2686 45.6971 17.4431 48.1689 17.4431H52.0596ZM58.9943 23.6438L58.6379 21.3971C58.5957 21.187 58.4755 21.0008 58.3014 20.8759C58.1273 20.751 57.9123 20.6967 57.6998 20.724L57.552 20.7428C57.0244 20.7874 56.9095 20.7217 56.8039 19.8469C56.7883 19.6911 56.782 19.5345 56.7852 19.3779V18.1349C56.7875 18.1115 56.7875 18.088 56.7852 18.0646V13.4375C56.7523 9.47412 54.0342 7.10547 49.515 7.10547C46.4663 7.10547 44.5901 7.7973 42.3786 8.98163C42.1841 9.08752 42.0388 9.26542 41.9739 9.47717C41.909 9.68892 41.9297 9.91768 42.0315 10.1144L43.054 12.0749C43.1063 12.1742 43.1778 12.262 43.2644 12.3332C43.3509 12.4045 43.4508 12.4578 43.5582 12.4901C43.6655 12.523 43.7784 12.5339 43.89 12.5222C44.0016 12.5105 44.1097 12.4765 44.2079 12.422C45.7416 11.5731 47.2191 11.1416 48.6028 11.1416C50.1764 11.1416 52.0502 11.6106 52.0502 13.8972V13.9792H47.5029C43.2815 14.0121 40.7675 16.0383 40.7675 19.399C40.7675 22.6823 43.3308 24.9759 47.0033 24.9759C49.4822 24.9759 51.4334 24.1832 52.6553 22.6893C53.0945 23.4108 53.7514 23.9741 54.5314 24.2981C55.9667 24.9313 56.9986 24.8962 58.2978 24.6241H58.3377L58.408 24.5983C58.604 24.5352 58.7706 24.4033 58.8771 24.2271C58.9835 24.0508 59.0227 23.842 58.9873 23.6391" fill="#42873E"/>
<path d="M33.2901 15.8905V15.9022C33.2502 19.9289 29.9341 20.2408 28.921 20.2408C27.9169 20.2196 26.9191 20.0762 25.9496 19.814V15.9045C25.9496 13.9275 27.1809 11.9177 29.5354 11.9177C30.0531 11.8938 30.5697 11.9818 31.0503 12.1756C31.5308 12.3695 31.9639 12.6647 32.32 13.041C32.6762 13.4174 32.9469 13.8662 33.1139 14.3567C33.281 14.8472 33.3402 15.3679 33.2878 15.8834L33.2901 15.8905ZM30.8323 7.13583C28.6724 7.13583 27.0542 7.76904 25.9192 9.06593V1.83803C25.9186 1.70576 25.8872 1.57545 25.8274 1.45748C25.7676 1.33952 25.681 1.23715 25.5746 1.15856C25.4683 1.07997 25.345 1.02732 25.2147 1.00481C25.0843 0.982306 24.9505 0.990566 24.8239 1.02893L21.7447 1.96701C21.5712 2.01952 21.4193 2.12663 21.3115 2.27241C21.2038 2.41818 21.146 2.59484 21.1467 2.77611V22.7103C21.146 22.8778 21.1951 23.0417 21.2878 23.1812C21.3805 23.3206 21.5126 23.4294 21.6673 23.4936C23.8218 24.4062 26.1293 24.9035 28.4684 24.9593H28.7803C31.618 24.9593 33.9655 24.1409 35.5814 22.5813C37.1972 21.0218 38.0626 18.7563 38.1095 15.8787C38.1564 13.0012 37.3872 10.6888 35.8792 9.15505C35.2152 8.5002 34.4267 7.98497 33.5603 7.63978C32.6939 7.29459 31.7671 7.12643 30.8347 7.14521" fill="#42873E"/>
<path d="M9.25885 20.8154C6.61346 20.8154 4.8358 18.911 4.8358 16.0757C4.8358 13.2404 6.61346 11.3384 9.25885 11.3384C11.8268 11.3384 13.6186 13.2873 13.6186 16.0757C13.6186 18.8641 11.8268 20.8154 9.25885 20.8154ZM9.25885 7.13345C3.72183 7.13345 0 10.7029 0 16.0147C0 21.3266 3.72183 24.957 9.25885 24.957C11.9324 24.957 14.2283 24.1033 15.8958 22.4851C17.5632 20.8669 18.4544 18.6249 18.4544 16.0147C18.4544 13.4045 17.5702 11.193 15.8958 9.58419C14.2213 7.97538 11.9324 7.13345 9.25885 7.13345Z" fill="#FF8300"/>
<path d="M6.96055 6.42528C6.25501 6.57696 5.52187 6.53893 4.8358 6.31506C4.24519 6.10514 3.7351 5.7156 3.37709 5.20109C3.00186 4.67342 2.67353 4.11291 2.33348 3.55945C2.01265 2.96073 1.61185 2.40845 1.14212 1.91781C0.938083 1.7255 0.698871 1.56368 0.462006 1.36668C0.677764 1.30805 0.888832 1.24239 1.09286 1.19314C2.22794 0.921099 3.36302 0.860124 4.48402 1.25177C5.89114 1.73957 6.82922 2.72221 7.38504 4.07773C7.65198 4.69344 7.76777 5.36407 7.72274 6.03364C7.72274 6.09696 7.70633 6.16028 7.69695 6.25174C7.69695 6.25174 7.2068 6.38542 6.96055 6.42763" fill="#77BC1F"/>
<path d="M9.24481 6.20721C9.59659 6.20721 9.94837 6.22128 10.2837 6.24942C10.4831 4.66876 11.1233 3.42111 12.1411 2.6425C12.2256 2.579 12.285 2.48783 12.309 2.38493C12.333 2.28204 12.3201 2.17398 12.2725 2.07966L11.8363 1.21193C11.8088 1.15988 11.7715 1.11375 11.7262 1.07615C11.681 1.03855 11.6288 1.01023 11.5726 0.992813C11.5164 0.975391 11.4573 0.969207 11.3988 0.974613C11.3402 0.980019 11.2832 0.996907 11.2312 1.02432C9.64349 1.88501 8.53187 3.80807 8.18243 6.24942C8.52952 6.22128 8.88599 6.20721 9.24715 6.20721" fill="#77BC1F"/>
</svg>
