<svg width="21" height="15" viewBox="0 0 21 15" fill="none" xmlns="http://www.w3.org/2000/svg">
<path d="M20.383 7.32742C20.383 7.27737 20.383 7.2205 20.3807 7.15453C20.3784 6.97026 20.3739 6.76325 20.3693 6.54258C20.3511 5.90789 20.3193 5.27547 20.2692 4.67945C20.201 3.85822 20.1009 3.17348 19.9644 2.65936C19.8203 2.12282 19.538 1.63349 19.1456 1.24027C18.7532 0.847056 18.2644 0.563723 17.7282 0.418594C17.0844 0.245703 15.8241 0.138783 14.0497 0.0728115C13.2057 0.0409631 12.3026 0.0204891 11.3994 0.00911466C11.0832 0.00456489 10.7898 0.00229014 10.5259 1.52588e-05H9.85707C9.59319 0.00229014 9.29973 0.00456489 8.98352 0.00911466C8.08039 0.0204891 7.17726 0.0409631 6.33328 0.0728115C4.55887 0.141058 3.29631 0.247978 2.65479 0.418594C2.11837 0.563366 1.62943 0.84658 1.23696 1.23985C0.84448 1.63313 0.562261 2.12265 0.418579 2.65936C0.279811 3.17348 0.181991 3.85822 0.113744 4.67945C0.0636968 5.27547 0.0318484 5.90789 0.0136493 6.54258C0.00682462 6.76325 0.00454973 6.97026 0.00227485 7.15453C0.00227485 7.2205 0 7.27737 0 7.32742V7.45481C0 7.50486 -3.47459e-08 7.56173 0.00227485 7.6277C0.00454973 7.81197 0.0090995 8.01898 0.0136493 8.23965C0.0318484 8.87434 0.0636968 9.50676 0.113744 10.1028C0.181991 10.924 0.282086 11.6088 0.418579 12.1229C0.709764 13.2125 1.56512 14.0725 2.65479 14.3636C3.29631 14.5365 4.55887 14.6434 6.33328 14.7094C7.17726 14.7413 8.08039 14.7617 8.98352 14.7731C9.29973 14.7777 9.59319 14.7799 9.85707 14.7822H10.5259C10.7898 14.7799 11.0832 14.7777 11.3994 14.7731C12.3026 14.7617 13.2057 14.7413 14.0497 14.7094C15.8241 14.6412 17.0867 14.5343 17.7282 14.3636C18.8178 14.0725 19.6732 13.2148 19.9644 12.1229C20.1032 11.6088 20.201 10.924 20.2692 10.1028C20.3193 9.50676 20.3511 8.87434 20.3693 8.23965C20.3761 8.01898 20.3784 7.81197 20.3807 7.6277C20.3807 7.56173 20.383 7.50486 20.383 7.45481V7.32742ZM18.7451 7.44571C18.7451 7.49348 18.7451 7.54581 18.7428 7.60723C18.7405 7.78467 18.736 7.98031 18.7314 8.19187C18.7155 8.79699 18.6836 9.40211 18.6359 9.96401C18.5744 10.6965 18.488 11.2971 18.3811 11.6997C18.24 12.2252 17.826 12.6415 17.3028 12.7803C16.825 12.9077 15.6216 13.0101 13.986 13.0715C13.1579 13.1033 12.2662 13.1238 11.3767 13.1352C11.065 13.1397 10.7761 13.142 10.5168 13.142H9.86617L9.00627 13.1352C8.11679 13.1238 7.22731 13.1033 6.39698 13.0715C4.76133 13.0078 3.55564 12.9077 3.08019 12.7803C2.55697 12.6393 2.14294 12.2252 2.0019 11.6997C1.89498 11.2971 1.80853 10.6965 1.74711 9.96401C1.69934 9.40211 1.66977 8.79699 1.65157 8.19187C1.64474 7.98031 1.64247 7.78239 1.64019 7.60723C1.64019 7.54581 1.63792 7.49121 1.63792 7.44571V7.33652C1.63792 7.28874 1.63792 7.23642 1.64019 7.175C1.64247 6.99756 1.64702 6.80192 1.65157 6.59035C1.66749 5.98524 1.69934 5.38012 1.74711 4.81822C1.80853 4.08571 1.89498 3.48514 2.0019 3.08248C2.14294 2.55699 2.55697 2.14068 3.08019 2.00191C3.55792 1.87452 4.76133 1.77215 6.39698 1.71073C7.22503 1.67888 8.11679 1.65841 9.00627 1.64703C9.31793 1.64248 9.60684 1.64021 9.86617 1.64021H10.5168L11.3767 1.64703C12.2662 1.65841 13.1557 1.67888 13.986 1.71073C15.6216 1.77442 16.8273 1.87452 17.3028 2.00191C17.826 2.14296 18.24 2.55699 18.3811 3.08248C18.488 3.48514 18.5744 4.08571 18.6359 4.81822C18.6836 5.38012 18.7132 5.98524 18.7314 6.59035C18.7382 6.80192 18.7405 6.99983 18.7428 7.175C18.7428 7.23642 18.7451 7.29102 18.7451 7.33652V7.44571ZM8.16684 10.4395L13.4446 7.36837L8.16684 4.34277V10.4395Z" fill="#42873E"/>
</svg>
