<?xml version="1.0" encoding="utf-8"?>
<!-- Generator: Adobe Illustrator 26.5.0, SVG Export Plug-In . SVG Version: 6.00 Build 0)  -->
<svg version="1.1"
	 id="Camada_1" text-rendering="geometricPrecision" shape-rendering="geometricPrecision" image-rendering="optimizeQuality"
	 xmlns="http://www.w3.org/2000/svg" xmlns:xlink="http://www.w3.org/1999/xlink" x="0px" y="0px" viewBox="0 0 1329.1 1329.1"
	 style="enable-background:new 0 0 1329.1 1329.1;" xml:space="preserve">
<style type="text/css">
	.st0{fill:#E5E5E4;}
	.st1{fill:#FFFFFF;}
	.st2{fill:#77BC1F;}
	.st3{fill:#FFFFFF;stroke:#FFFFFF;stroke-width:26;stroke-miterlimit:10;}
</style>
<g id="_2116467169744">
	<path class="st0" d="M664.5,0c367,0,664.5,297.5,664.5,664.5s-297.5,664.5-664.5,664.5S0,1031.6,0,664.5S297.5,0,664.5,0z"/>
	<path class="st1" d="M664.5,12.9c359.9,0,651.6,291.7,651.6,651.6s-291.7,651.6-651.6,651.6S12.9,1024.4,12.9,664.5
		S304.7,12.9,664.5,12.9L664.5,12.9z"/>
	<path class="st2" d="M664.5,65.2c331,0,599.3,268.3,599.3,599.3s-268.3,599.3-599.3,599.3S65.2,995.5,65.2,664.5
		S333.5,65.2,664.5,65.2L664.5,65.2z"/>
	<g>
		<path class="st3" d="M979.7,965.5L767,752.9c40.1-46.7,64.5-107.3,64.5-173.7c0-147.3-119.9-267.2-267.3-267.2
			c-71.4,0-138.5,27.8-189,78.3C324.7,440.7,297,507.9,297,579.2c0,147.3,119.9,267.2,267.2,267.2c66.2,0,126.9-24.5,173.7-64.5
			l212.7,212.7L979.7,965.5z M564.2,805.4c-124.7,0-226.1-101.4-226.1-226.2c0-60.5,23.5-117.2,66.2-159.9s99.5-66.2,159.9-66.2
			c124.7,0,226.1,101.4,226.1,226.1C790.4,704,689,805.4,564.2,805.4z M584.8,558.7H667v41.1h-82.2V682h-41.1v-82.2h-82.2v-41.1
			h82.2v-82.2h41.1V558.7L584.8,558.7z"/>
	</g>
</g>
</svg>
